<?xml version="1.0" encoding="UTF-8"?>
<svg version="1.1" xmlns="http://www.w3.org/2000/svg" width="677" height="369">
<path d="M0 0 C223.41 0 446.82 0 677 0 C677 121.77 677 243.54 677 369 C453.59 369 230.18 369 0 369 C0 247.23 0 125.46 0 0 Z " fill="#FEFEFE" transform="translate(0,0)"/>
<path d="M0 0 C5.44347413 0.99797026 7.88499086 3.87998687 11.75 7.6875 C13.88294891 9.70144318 16.0345825 11.69494244 18.1875 13.6875 C18.74348877 14.20505859 19.29947754 14.72261719 19.87231445 15.25585938 C24.29397729 19.34397068 28.89297999 23.12317524 33.75 26.6875 C33.73839844 25.97722656 33.72679687 25.26695313 33.71484375 24.53515625 C33.70582031 23.61605469 33.69679688 22.69695312 33.6875 21.75 C33.67589844 20.83347656 33.66429687 19.91695312 33.65234375 18.97265625 C33.75 16.6875 33.75 16.6875 34.75 15.6875 C37.59335048 15.58763025 40.40697163 15.54872119 43.25 15.5625 C44.44689453 15.55669922 44.44689453 15.55669922 45.66796875 15.55078125 C51.62339233 15.56089233 51.62339233 15.56089233 52.75 16.6875 C52.71220355 18.73306686 52.61906458 20.77764 52.50390625 22.8203125 C51.4607875 38.1466508 51.4607875 38.1466508 57.09375 51.76953125 C60.31773709 54.98088726 63.84505175 57.66467643 67.61938477 60.19628906 C70.60606825 62.28665949 73.26199771 64.69292533 75.9609375 67.13745117 C77.69803137 68.7010693 77.69803137 68.7010693 79.5390625 69.9152832 C81.96304571 71.60223479 83.546928 73.04405839 84.4453125 75.890625 C84.80963725 78.293618 85.07964378 80.27613314 84.75 82.6875 C83.20977021 84.64706403 82.33436781 85.58281359 79.84887695 86.02807617 C79.15238037 86.01236572 78.45588379 85.99665527 77.73828125 85.98046875 C76.98095703 85.97080078 76.22363281 85.96113281 75.44335938 85.95117188 C74.65767578 85.92603516 73.87199219 85.90089844 73.0625 85.875 C71.86657227 85.85469727 71.86657227 85.85469727 70.64648438 85.83398438 C68.68070033 85.79867089 66.71526418 85.74486447 64.75 85.6875 C64.76110306 86.45757889 64.77220612 87.22765778 64.78364563 88.02107239 C64.88379329 95.27514028 64.95993619 102.52887349 65.00906086 109.78345203 C65.03516566 113.51324237 65.07057743 117.242462 65.12719727 120.97192383 C65.1814892 124.57053426 65.21141389 128.16859552 65.22438622 131.76758385 C65.23363151 133.14119809 65.25168603 134.51478194 65.27865028 135.88816261 C65.314891 137.81031655 65.31704194 139.73302211 65.31762695 141.65551758 C65.32873001 142.75027908 65.33983307 143.84504059 65.35127258 144.97297668 C64.75 147.6875 64.75 147.6875 62.50817871 149.54321289 C59.75617221 150.68493933 58.0034233 151.05302189 55.05151367 151.02807617 C54.15095749 151.02784958 53.25040131 151.02762299 52.32255554 151.02738953 C51.3640419 151.01190567 50.40552826 150.99642181 49.41796875 150.98046875 C48.42622147 150.97622391 47.43447418 150.97197906 46.41267395 150.96760559 C43.25400315 150.95085123 40.09597703 150.91320448 36.9375 150.875 C34.79232694 150.85994899 32.64714385 150.84626132 30.50195312 150.83398438 C25.25108319 150.80095841 20.00058766 150.75079122 14.75 150.6875 C14.75 149.6975 14.75 148.7075 14.75 147.6875 C14.193125 147.9040625 13.63625 148.120625 13.0625 148.34375 C6.25511013 150.82752739 1.15432433 151.78380783 -5.9375 149.5 C-11.66316838 146.36708711 -14.75083566 142.66977295 -17.25 136.6875 C-17.61076355 133.11868286 -17.61076355 133.11868286 -17.59057617 129.12158203 C-17.59123329 128.0229911 -17.59123329 128.0229911 -17.59190369 126.90220642 C-17.58982627 124.49963007 -17.5665458 122.0977658 -17.54296875 119.6953125 C-17.53736905 118.02237326 -17.53310072 116.34942908 -17.53010559 114.67648315 C-17.51868625 110.28696966 -17.48924438 105.89775698 -17.45599365 101.50836182 C-17.4252298 97.0238451 -17.41158679 92.53927947 -17.39648438 88.0546875 C-17.36437166 79.26548741 -17.31321085 70.4765312 -17.25 61.6875 C-18.054375 61.543125 -18.85875 61.39875 -19.6875 61.25 C-22.25 60.6875 -22.25 60.6875 -23.25 59.6875 C-23.63597926 54.66976959 -23.24772561 51.76440683 -20.25 47.6875 C-17.25970428 44.69720428 -6.1249869 46.31780055 -1.87719727 46.2824707 C0.07740944 46.26088091 2.0319192 46.22676632 3.98608398 46.17993164 C6.79975685 46.11306973 9.611427 46.08549509 12.42578125 46.06640625 C13.29882401 46.03857559 14.17186676 46.01074493 15.07136536 45.98207092 C17.44550082 45.99013024 19.46015197 46.05810971 21.75 46.6875 C24.27508108 49.54509008 25.47696194 51.56804395 26.375 55.25 C25.75 57.6875 25.75 57.6875 22.765625 59.7890625 C20.79753537 61.36639837 19.88026986 62.24392083 19.16357422 64.68432617 C18.93768867 66.97173324 18.86729398 69.20167994 18.875 71.5 C18.854375 72.28826172 18.83375 73.07652344 18.8125 73.88867188 C18.76565183 75.82115908 18.75426251 77.75444972 18.75 79.6875 C19.66523438 79.66429687 20.58046875 79.64109375 21.5234375 79.6171875 C22.71195312 79.59914063 23.90046875 79.58109375 25.125 79.5625 C26.90003906 79.52769531 26.90003906 79.52769531 28.7109375 79.4921875 C31.75 79.6875 31.75 79.6875 33.75 81.6875 C33.9453125 83.8515625 33.9453125 83.8515625 33.875 86.3125 C33.85695313 87.12976563 33.83890625 87.94703125 33.8203125 88.7890625 C33.79710937 89.41554688 33.77390625 90.04203125 33.75 90.6875 C34.37648438 90.67589844 35.00296875 90.66429687 35.6484375 90.65234375 C36.46570313 90.64332031 37.28296875 90.63429688 38.125 90.625 C38.93710937 90.61339844 39.74921875 90.60179687 40.5859375 90.58984375 C42.75 90.6875 42.75 90.6875 44.75 91.6875 C44.8309313 94.29228883 44.89045434 96.89456653 44.9375 99.5 C44.96263672 100.23798828 44.98777344 100.97597656 45.01367188 101.73632812 C45.08730952 107.16096806 45.08730952 107.16096806 43.46875 109.6875 C40.66394983 111.31938373 37.90645947 110.86616752 34.75 110.6875 C34.79125 111.76 34.8325 112.8325 34.875 113.9375 C34.75 117.6875 34.75 117.6875 32.75 121.6875 C28.46 121.6875 24.17 121.6875 19.75 121.6875 C19.770625 123.70875 19.79125 125.73 19.8125 127.8125 C19.85770995 132.24307481 19.59023188 136.33417264 18.75 140.6875 C19.41 140.6875 20.07 140.6875 20.75 140.6875 C21.08 139.6975 21.41 138.7075 21.75 137.6875 C31.65 137.6875 41.55 137.6875 51.75 137.6875 C51.75 116.2375 51.75 94.7875 51.75 72.6875 C54.72 72.6875 57.69 72.6875 60.75 72.6875 C54.12578365 64.60918738 46.43962991 57.72499886 38.75 50.6875 C37.87045654 49.8821582 37.87045654 49.8821582 36.97314453 49.06054688 C36.4161084 48.55072266 35.85907227 48.04089844 35.28515625 47.515625 C34.74979248 47.02553955 34.21442871 46.5354541 33.6628418 46.03051758 C32.22284883 44.71442938 30.77951304 43.40200135 29.3359375 42.08984375 C27.54293137 40.42413564 25.80048472 38.7029731 24.1015625 36.94140625 C21.88452792 34.49448067 21.88452792 34.49448067 18.75 33.6875 C17.1015625 31.9453125 17.1015625 31.9453125 15.375 29.8125 C12.71101875 26.65498118 10.35319411 24.73255612 6.75 22.6875 C2.75 18.25506757 2.75 18.25506757 2.75 15.6875 C-1.36202787 17.80581739 -4.19210577 20.52261245 -7.3671875 23.80078125 C-9.23758593 25.67506017 -11.1772476 27.40248961 -13.1875 29.125 C-16.63421216 32.09355556 -19.84110859 35.22829104 -23 38.5 C-24.94309111 40.38911636 -26.92644665 42.1665839 -28.97265625 43.94140625 C-33.32363193 47.7204416 -37.51020073 51.65599503 -41.6875 55.625 C-46.96643523 60.62458391 -52.2616308 65.57055257 -57.78125 70.3046875 C-59.37098296 71.64224781 -59.37098296 71.64224781 -60.25 73.6875 C-56.62 73.6875 -52.99 73.6875 -49.25 73.6875 C-49.25 94.8075 -49.25 115.9275 -49.25 137.6875 C-39.35 137.6875 -29.45 137.6875 -19.25 137.6875 C-13.25 147.6875 -13.25 147.6875 -13.25 149.6875 C-19.74614132 149.73814837 -26.24223185 149.7732117 -32.73852539 149.79736328 C-34.94915673 149.80743006 -37.15977472 149.82108448 -39.37036133 149.83837891 C-42.54511811 149.86259738 -45.71969906 149.87397627 -48.89453125 149.8828125 C-50.38059624 149.89829636 -50.38059624 149.89829636 -51.89668274 149.91409302 C-52.81741074 149.91424408 -53.73813873 149.91439514 -54.68676758 149.91455078 C-55.90255241 149.92121262 -55.90255241 149.92121262 -57.14289856 149.92800903 C-59.25 149.6875 -59.25 149.6875 -62.25 147.6875 C-62.61076355 145.0932312 -62.61076355 145.0932312 -62.59057617 141.76904297 C-62.59034958 140.52790741 -62.59012299 139.28677185 -62.58988953 138.00802612 C-62.57456848 136.64857628 -62.55892047 135.28913009 -62.54296875 133.9296875 C-62.53737427 132.5424953 -62.53310347 131.15529717 -62.53010559 129.76809692 C-62.51864497 126.11500719 -62.48916786 122.46227466 -62.45599365 118.80932617 C-62.42531867 115.08256869 -62.41160579 111.35575355 -62.39648438 107.62890625 C-62.36429886 100.31494123 -62.31308839 93.00127064 -62.25 85.6875 C-62.80985596 85.70321045 -63.36971191 85.7189209 -63.9465332 85.73510742 C-66.4850859 85.79749848 -69.02347729 85.83650218 -71.5625 85.875 C-72.44357422 85.90013672 -73.32464844 85.92527344 -74.23242188 85.95117188 C-75.07998047 85.96083984 -75.92753906 85.97050781 -76.80078125 85.98046875 C-77.58106689 85.9961792 -78.36135254 86.01188965 -79.1652832 86.02807617 C-81.80251217 85.59723715 -82.65617193 84.79832081 -84.25 82.6875 C-84.75 79.83984375 -84.75 79.83984375 -84.25 76.6875 C-82.125 73.94140625 -82.125 73.94140625 -79.25 71.25 C-78.74307617 70.76829346 -78.23615234 70.28658691 -77.71386719 69.7902832 C-74.41694167 66.68075418 -71.02547623 63.67988802 -67.58203125 60.734375 C-62.34597513 56.13857365 -57.31482841 51.31112858 -52.23339844 46.54589844 C-49.0982856 43.60837026 -45.95488884 40.67973974 -42.8125 37.75 C-38.92681356 34.12560479 -35.04504896 30.49714238 -31.171875 26.859375 C-24.05774622 20.17781088 -16.92444424 13.5227838 -9.703125 6.95703125 C-8.12771634 5.49952738 -6.59593859 3.99255975 -5.125 2.4296875 C-3.25 0.6875 -3.25 0.6875 0 0 Z " fill="#145D91" transform="translate(337.25,72.3125)"/>
<path d="M0 0 C1.9546067 -0.02158979 3.90911647 -0.05570438 5.86328125 -0.10253906 C8.67695411 -0.16940097 11.48862426 -0.19697562 14.30297852 -0.21606445 C15.17602127 -0.24389511 16.04906403 -0.27172577 16.94856262 -0.30039978 C19.32269809 -0.29234046 21.33734923 -0.22436099 23.62719727 0.4050293 C26.15227835 3.26261937 27.3541592 5.28557325 28.25219727 8.9675293 C27.62719727 11.4050293 27.62719727 11.4050293 24.64282227 13.5065918 C22.67473263 15.08392767 21.75746712 15.96145013 21.04077148 18.40185547 C20.81488593 20.68926253 20.74449125 22.91920924 20.75219727 25.2175293 C20.73157227 26.00579102 20.71094727 26.79405273 20.68969727 27.60620117 C20.64284909 29.53868837 20.63145978 31.47197902 20.62719727 33.4050293 C22.00004883 33.37022461 22.00004883 33.37022461 23.40063477 33.3347168 C24.58915039 33.31666992 25.77766602 33.29862305 27.00219727 33.2800293 C28.18555664 33.25682617 29.36891602 33.23362305 30.58813477 33.2097168 C33.62719727 33.4050293 33.62719727 33.4050293 35.62719727 35.4050293 C35.82250977 37.5690918 35.82250977 37.5690918 35.75219727 40.0300293 C35.73415039 40.84729492 35.71610352 41.66456055 35.69750977 42.5065918 C35.67430664 43.13307617 35.65110352 43.75956055 35.62719727 44.4050293 C36.25368164 44.39342773 36.88016602 44.38182617 37.52563477 44.36987305 C38.34290039 44.36084961 39.16016602 44.35182617 40.00219727 44.3425293 C41.22036133 44.32512695 41.22036133 44.32512695 42.46313477 44.30737305 C44.62719727 44.4050293 44.62719727 44.4050293 46.62719727 45.4050293 C46.70812856 48.00981812 46.76765161 50.61209583 46.81469727 53.2175293 C46.83983398 53.95551758 46.8649707 54.69350586 46.89086914 55.45385742 C46.96450679 60.87849736 46.96450679 60.87849736 45.34594727 63.4050293 C42.5411471 65.03691303 39.78365674 64.58369681 36.62719727 64.4050293 C36.66844727 65.4775293 36.70969727 66.5500293 36.75219727 67.6550293 C36.62719727 71.4050293 36.62719727 71.4050293 34.62719727 75.4050293 C30.33719727 75.4050293 26.04719727 75.4050293 21.62719727 75.4050293 C21.64782227 77.4262793 21.66844727 79.4475293 21.68969727 81.5300293 C21.73490721 85.96060411 21.46742914 90.05170194 20.62719727 94.4050293 C21.28719727 94.4050293 21.94719727 94.4050293 22.62719727 94.4050293 C20.75219727 100.1550293 20.75219727 100.1550293 19.62719727 102.4050293 C26.88719727 102.0750293 34.14719727 101.7450293 41.62719727 101.4050293 C37.33719727 101.0750293 33.04719727 100.7450293 28.62719727 100.4050293 C28.29719727 99.0850293 27.96719727 97.7650293 27.62719727 96.4050293 C34.22719727 96.4050293 40.82719727 96.4050293 47.62719727 96.4050293 C47.13219727 98.3850293 47.13219727 98.3850293 46.62719727 100.4050293 C53.22719727 100.4050293 59.82719727 100.4050293 66.62719727 100.4050293 C64.62719727 103.4050293 64.62719727 103.4050293 61.62719727 104.4050293 C60.13875011 104.49153514 58.64671469 104.52273103 57.15576172 104.51855469 C55.80470085 104.51844139 55.80470085 104.51844139 54.42634583 104.51832581 C53.45750961 104.51316452 52.4886734 104.50800323 51.49047852 104.50268555 C49.99861275 104.50056313 49.99861275 104.50056313 48.47660828 104.49839783 C45.29760744 104.4927969 42.11867684 104.48024426 38.93969727 104.4675293 C36.78540141 104.46251442 34.63110445 104.45795149 32.47680664 104.45385742 C27.19357952 104.44282718 21.91039341 104.42608816 16.62719727 104.4050293 C16.62719727 103.4150293 16.62719727 102.4250293 16.62719727 101.4050293 C16.07032227 101.6215918 15.51344727 101.8381543 14.93969727 102.0612793 C8.13230739 104.54505668 3.03152159 105.50133713 -4.06030273 103.2175293 C-9.78597111 100.08461641 -12.8736384 96.38730225 -15.37280273 90.4050293 C-15.73356628 86.83621216 -15.73356628 86.83621216 -15.71337891 82.83911133 C-15.71381699 82.10671738 -15.71425507 81.37432343 -15.71470642 80.61973572 C-15.71262901 78.21715936 -15.68934854 75.8152951 -15.66577148 73.4128418 C-15.66017178 71.73990256 -15.65590345 70.06695838 -15.65290833 68.39401245 C-15.64148898 64.00449896 -15.61204711 59.61528628 -15.57879639 55.22589111 C-15.54803254 50.74137439 -15.53438952 46.25680877 -15.51928711 41.7722168 C-15.48717439 32.98301671 -15.43601358 24.19406049 -15.37280273 15.4050293 C-16.17717773 15.2606543 -16.98155273 15.1162793 -17.81030273 14.9675293 C-20.37280273 14.4050293 -20.37280273 14.4050293 -21.37280273 13.4050293 C-21.758782 8.38729888 -21.37052835 5.48193613 -18.37280273 1.4050293 C-15.38250701 -1.58526643 -4.24778964 0.03532985 0 0 Z " fill="#346D99" transform="translate(335.372802734375,118.594970703125)"/>
<path d="M0 0 C11.88 0 23.76 0 36 0 C36.495 2.475 36.495 2.475 37 5 C36.67 5.33 36.34 5.66 36 6 C34.35 6 32.7 6 31 6 C31 16.56 31 27.12 31 38 C30.01 38 29.02 38 28 38 C27.67 35.36 27.34 32.72 27 30 C23.56769552 30.26393501 23.56769552 30.26393501 20 31 C19.01 32.485 19.01 32.485 18 34 C15.8359375 34.51171875 15.8359375 34.51171875 13.375 34.6875 C12.55773437 34.75324219 11.74046875 34.81898438 10.8984375 34.88671875 C10.27195312 34.92410156 9.64546875 34.96148437 9 35 C9 37.64 9 40.28 9 43 C10.98 43.33 12.96 43.66 15 44 C15 44.99 15 45.98 15 47 C12.525 47.495 12.525 47.495 10 48 C9.67 50.31 9.34 52.62 9 55 C10.98 55 12.96 55 15 55 C15 56.65 15 58.3 15 60 C13.35 60 11.7 60 10 60 C10.08087857 64.08414438 10.19372403 68.16679586 10.3125 72.25 C10.33505859 73.40886719 10.35761719 74.56773437 10.38085938 75.76171875 C10.41630859 76.87675781 10.45175781 77.99179688 10.48828125 79.140625 C10.51446533 80.16704102 10.54064941 81.19345703 10.56762695 82.25097656 C11.06017856 85.38261467 11.7415397 86.79086795 14 89 C18.12734567 89.7908869 18.12734567 89.7908869 22 89 C25.30475375 86.23411663 26.7275662 84.52416402 27.49023438 80.25732422 C27.7158235 77.03861447 27.79539874 73.85143849 27.8125 70.625 C27.83763672 69.50738281 27.86277344 68.38976562 27.88867188 67.23828125 C27.94735666 64.49183335 27.98377396 61.74697249 28 59 C28.99 59 29.98 59 31 59 C31.14570522 63.20796686 31.23421087 67.41528166 31.3125 71.625 C31.35439453 72.81480469 31.39628906 74.00460938 31.43945312 75.23046875 C31.57762216 85.12337154 31.57762216 85.12337154 28.73046875 88.7109375 C23.89223958 92.76702089 20.60639679 93.50123603 14.34765625 93.390625 C12 93 12 93 9.4375 90.6875 C8 88 8 88 7 85 C6.34 84.67 5.68 84.34 5 84 C5 59.91 5 35.82 5 11 C9.95 11 14.9 11 20 11 C20 9.35 20 7.7 20 6 C13.4 6 6.8 6 0 6 C0 4.02 0 2.04 0 0 Z " fill="#F2F4F3" transform="translate(320,124)"/>
<path d="M0 0 C2.64 0 5.28 0 8 0 C9 1 9 1 9.11352539 3.31665039 C9.10828857 4.31688232 9.10305176 5.31711426 9.09765625 6.34765625 C9.09443359 7.42724609 9.09121094 8.50683594 9.08789062 9.61914062 C9.07951172 10.75544922 9.07113281 11.89175781 9.0625 13.0625 C9.05798828 14.20267578 9.05347656 15.34285156 9.04882812 16.51757812 C9.03699747 19.34510351 9.0205141 22.1725264 9 25 C9.93972656 24.96519531 9.93972656 24.96519531 10.8984375 24.9296875 C11.71570313 24.91164063 12.53296875 24.89359375 13.375 24.875 C14.59316406 24.84019531 14.59316406 24.84019531 15.8359375 24.8046875 C18 25 18 25 20 27 C23.26068824 20.75547442 26.25229633 14.85637594 28 8 C30.47557003 1.52442997 30.47557003 1.52442997 32 0 C33.51928038 -0.07179964 35.04167482 -0.08392007 36.5625 -0.0625 C37.38878906 -0.05347656 38.21507812 -0.04445312 39.06640625 -0.03515625 C39.70449219 -0.02355469 40.34257812 -0.01195312 41 0 C43.51195651 4.7314763 45.33737235 9.5106556 47.0625 14.5625 C47.57325438 16.04330173 48.08494976 17.52377928 48.59765625 19.00390625 C48.95585449 20.04212524 48.95585449 20.04212524 49.32128906 21.10131836 C49.89345086 22.70193069 50.52782391 24.2801045 51.17578125 25.8515625 C52.13425404 28.34995129 52.15162175 30.34661946 52 33 C49.36 33 46.72 33 44 33 C43.67 31.35 43.34 29.7 43 28 C38.71 27.67 34.42 27.34 30 27 C29.34 28.98 28.68 30.96 28 33 C18.76 33 9.52 33 0 33 C0 22.11 0 11.22 0 0 Z " fill="#1A5F8F" transform="translate(216,240)"/>
<path d="M0 0 C3.0625 2.125 3.0625 2.125 5 5 C5.763125 5.886875 6.52625 6.77375 7.3125 7.6875 C9.59522935 12.16841316 9.51889354 16.05775171 9 21 C8.505 22.485 8.505 22.485 8 24 C7.34 24 6.68 24 6 24 C5.7525 24.5775 5.505 25.155 5.25 25.75 C3.17445909 29.48597363 1.06826056 31.64391315 -3 33 C-10.24498185 33.47508078 -14.51688027 32.02278692 -20.3125 27.5625 C-23.81588194 24.22206606 -23.81588194 24.22206606 -24 21 C-24.0825 19.72125 -24.165 18.4425 -24.25 17.125 C-24.1373311 10.3648659 -20.43096738 5.76328993 -16 1 C-10.80169066 -0.73276978 -5.4150045 -0.59939672 0 0 Z " fill="#46A856" transform="translate(385,240)"/>
<path d="M0 0 C3.3 0 6.6 0 10 0 C13 7.625 13 7.625 13 11 C13.66 11 14.32 11 15 11 C15.45375 12.134375 15.9075 13.26875 16.375 14.4375 C17.57095806 18.04721692 17.57095806 18.04721692 20 19 C20.18175781 18.21753906 20.36351562 17.43507813 20.55078125 16.62890625 C20.80214844 15.61699219 21.05351562 14.60507813 21.3125 13.5625 C21.55613281 12.55316406 21.79976563 11.54382813 22.05078125 10.50390625 C22.36402344 9.67761719 22.67726563 8.85132813 23 8 C23.99 7.67 24.98 7.34 26 7 C26.33 4.69 26.66 2.38 27 0 C30.3 0 33.6 0 37 0 C37 10.89 37 21.78 37 33 C34.36 33 31.72 33 29 33 C28.67 28.05 28.34 23.1 28 18 C25.61170948 22.61736167 23.49888743 27.00370856 22 32 C19.69 32 17.38 32 15 32 C14.66226562 31.00097656 14.32453125 30.00195312 13.9765625 28.97265625 C13.52642664 27.66913783 13.07588475 26.36575957 12.625 25.0625 C12.40328125 24.40314453 12.1815625 23.74378906 11.953125 23.06445312 C10.87090848 19.32423336 10.87090848 19.32423336 8 17 C8 21.95 8 26.9 8 32 C5.36 32 2.72 32 0 32 C0 21.44 0 10.88 0 0 Z " fill="#33A143" transform="translate(398,240)"/>
<path d="M0 0 C0 2.64 0 5.28 0 8 C0.99 8.33 1.98 8.66 3 9 C-0.63 9.33 -4.26 9.66 -8 10 C-7.8590651 12.43787385 -7.71245458 14.87517853 -7.5625 17.3125 C-7.52318359 18.00279297 -7.48386719 18.69308594 -7.44335938 19.40429688 C-7.25072585 22.47161535 -6.97677283 25.06968152 -6 28 C-4.02 28.33 -2.04 28.66 0 29 C0.1753878 32.85358472 0.28121462 36.70613439 0.375 40.5625 C0.45041016 42.19155273 0.45041016 42.19155273 0.52734375 43.85351562 C0.64411784 50.2566282 0.20804824 54.12081014 -4.29785156 58.83276367 C-6.32134591 60.2203607 -7.68507988 60.57009414 -10.125 60.75 C-14 60 -14 60 -16.21777344 57.82543945 C-18.2807753 54.55487499 -18.46915424 52.87126914 -18.390625 49.04296875 C-18.37773437 47.93115234 -18.36484375 46.81933594 -18.3515625 45.67382812 C-18.31804687 44.52333984 -18.28453125 43.37285156 -18.25 42.1875 C-18.23195313 41.01767578 -18.21390625 39.84785156 -18.1953125 38.64257812 C-18.1482644 35.7608822 -18.08253709 32.88086203 -18 30 C-16.35 30 -14.7 30 -13 30 C-13 28.35 -13 26.7 -13 25 C-14.98 25 -16.96 25 -19 25 C-19.04241723 22.66705225 -19.04092937 20.33297433 -19 18 C-18 17 -18 17 -15.4375 16.9375 C-14.2309375 16.9684375 -14.2309375 16.9684375 -13 17 C-13 16.01 -13 15.02 -13 14 C-15.97 13.505 -15.97 13.505 -19 13 C-19 10.36 -19 7.72 -19 5 C-18.37351562 4.89042969 -17.74703125 4.78085938 -17.1015625 4.66796875 C-15.87566406 4.43013672 -15.87566406 4.43013672 -14.625 4.1875 C-13.81289063 4.03667969 -13.00078125 3.88585937 -12.1640625 3.73046875 C-9.64179359 3.12455058 -9.64179359 3.12455058 -8 0 C-5.0187907 -1.19248372 -3.02213602 -0.97140086 0 0 Z " fill="#2D9E3E" transform="translate(348,154)"/>
<path d="M0 0 C1.9546067 -0.02158979 3.90911647 -0.05570438 5.86328125 -0.10253906 C8.67695411 -0.16940097 11.48862426 -0.19697562 14.30297852 -0.21606445 C15.17602127 -0.24389511 16.04906403 -0.27172577 16.94856262 -0.30039978 C19.32269809 -0.29234046 21.33734923 -0.22436099 23.62719727 0.4050293 C26.15227835 3.26261937 27.3541592 5.28557325 28.25219727 8.9675293 C27.62719727 11.4050293 27.62719727 11.4050293 24.64282227 13.5065918 C22.67473263 15.08392767 21.75746712 15.96145013 21.04077148 18.40185547 C20.81488593 20.68926253 20.74449125 22.91920924 20.75219727 25.2175293 C20.73157227 26.00579102 20.71094727 26.79405273 20.68969727 27.60620117 C20.64284909 29.53868837 20.63145978 31.47197902 20.62719727 33.4050293 C19.63719727 33.7350293 18.64719727 34.0650293 17.62719727 34.4050293 C17.29719727 37.3750293 16.96719727 40.3450293 16.62719727 43.4050293 C16.29719727 43.4050293 15.96719727 43.4050293 15.62719727 43.4050293 C15.62719727 32.8450293 15.62719727 22.2850293 15.62719727 11.4050293 C17.27719727 11.0750293 18.92719727 10.7450293 20.62719727 10.4050293 C20.62719727 9.0850293 20.62719727 7.7650293 20.62719727 6.4050293 C8.74719727 6.0750293 -3.13280273 5.7450293 -15.37280273 5.4050293 C-15.37280273 7.3850293 -15.37280273 9.3650293 -15.37280273 11.4050293 C-8.77280273 11.4050293 -2.17280273 11.4050293 4.62719727 11.4050293 C4.62719727 13.0550293 4.62719727 14.7050293 4.62719727 16.4050293 C-0.32280273 16.4050293 -5.27280273 16.4050293 -10.37280273 16.4050293 C-10.26471681 25.85403247 -10.15262164 35.30296471 -10.03346348 44.75183487 C-9.97829427 49.13930018 -9.92488389 53.52677223 -9.87548828 57.91430664 C-9.82775617 62.14834086 -9.77541021 66.38229518 -9.71986198 70.61623383 C-9.6994785 72.23173788 -9.68075886 73.84726382 -9.66372871 75.4628067 C-9.63959586 77.72520349 -9.60955368 79.98745029 -9.578125 82.24975586 C-9.56258072 83.53771057 -9.54703644 84.82566528 -9.53102112 86.15264893 C-9.49703998 89.2826001 -9.49703998 89.2826001 -8.73497009 91.72723389 C-8.61545486 92.28090637 -8.49593964 92.83457886 -8.37280273 93.4050293 C-9.36280273 94.3950293 -9.36280273 94.3950293 -10.37280273 95.4050293 C-10.37280273 94.7450293 -10.37280273 94.0850293 -10.37280273 93.4050293 C-11.36280273 93.0750293 -12.35280273 92.7450293 -13.37280273 92.4050293 C-13.37280273 66.9950293 -13.37280273 41.5850293 -13.37280273 15.4050293 C-15.35280273 15.4050293 -17.33280273 15.4050293 -19.37280273 15.4050293 C-21.37280273 13.4050293 -21.37280273 13.4050293 -21.68530273 10.0925293 C-20.60330414 -2.67505408 -9.8985539 0.08232856 0 0 Z " fill="#49A75A" transform="translate(335.372802734375,118.594970703125)"/>
<path d="M0 0 C2.866875 -0.061875 5.73375 -0.12375 8.6875 -0.1875 C10.02880981 -0.22846802 10.02880981 -0.22846802 11.3972168 -0.27026367 C16.08935444 -0.3192004 19.22122733 -0.09960512 23 3 C25.33907154 6.50860731 24.95751873 7.93078811 24.2890625 11.96484375 C23.90625121 14.3174451 23.90625121 14.3174451 24 18 C24.33 18.33 24.66 18.66 25 19 C25.30859375 21.14453125 25.30859375 21.14453125 25.4375 23.8125 C25.49808594 24.68519531 25.55867188 25.55789063 25.62109375 26.45703125 C25 29 25 29 22.58984375 31.30859375 C17.90994028 33.51359723 14.21088276 33.4475949 9.125 33.25 C6.11375 33.1675 3.1025 33.085 0 33 C0 22.11 0 11.22 0 0 Z " fill="#286594" transform="translate(272,240)"/>
<path d="M0 0 C0.66 0 1.32 0 2 0 C2.33 25.41 2.66 50.82 3 77 C3.99 77.33 4.98 77.66 6 78 C6.33 76.68 6.66 75.36 7 74 C7.24492187 74.5775 7.48984375 75.155 7.7421875 75.75 C8.96907108 78.18684463 10.08970578 80.0429057 12 82 C17.01154177 83.43425155 20.95088012 82.54329423 25.5 80.1875 C28.3580751 77.68668429 29.87120776 76.10163714 30.31884766 72.27270508 C30.35026855 71.19915771 30.38168945 70.12561035 30.4140625 69.01953125 C30.45273437 67.85615234 30.49140625 66.69277344 30.53125 65.49414062 C30.5621875 64.27919922 30.593125 63.06425781 30.625 61.8125 C30.66367187 60.58595703 30.70234375 59.35941406 30.7421875 58.09570312 C30.83656103 55.06395344 30.92214549 52.03221159 31 49 C29.515 48.505 29.515 48.505 28 48 C29.32 48 30.64 48 32 48 C32.495 52.95 32.495 52.95 33 58 C35.62506802 58.02690844 38.24986173 58.04679404 40.875 58.0625 C41.99455078 58.07506836 41.99455078 58.07506836 43.13671875 58.08789062 C47.19845578 58.20688084 47.19845578 58.20688084 51 57 C50.67 57.99 50.34 58.98 50 60 C45.71 60 41.42 60 37 60 C37.020625 62.02125 37.04125 64.0425 37.0625 66.125 C37.10770995 70.55557481 36.84023188 74.64667264 36 79 C36.66 79 37.32 79 38 79 C36.125 84.75 36.125 84.75 35 87 C42.26 86.67 49.52 86.34 57 86 C52.71 85.67 48.42 85.34 44 85 C43.67 83.68 43.34 82.36 43 81 C49.6 81 56.2 81 63 81 C62.505 82.98 62.505 82.98 62 85 C68.6 85 75.2 85 82 85 C80 88 80 88 77 89 C75.51155284 89.08650584 74.01951743 89.11770173 72.52856445 89.11352539 C71.17750359 89.11341209 71.17750359 89.11341209 69.79914856 89.11329651 C68.83031235 89.10813522 67.86147614 89.10297394 66.86328125 89.09765625 C65.37141548 89.09553383 65.37141548 89.09553383 63.84941101 89.09336853 C60.67041018 89.08776761 57.49147957 89.07521496 54.3125 89.0625 C52.15820414 89.05748512 50.00390718 89.05292219 47.84960938 89.04882812 C42.56638226 89.03779788 37.28319615 89.02105886 32 89 C32 88.01 32 87.02 32 86 C31.443125 86.2165625 30.88625 86.433125 30.3125 86.65625 C23.50511013 89.14002739 18.40432433 90.09630783 11.3125 87.8125 C5.58683162 84.67958711 2.49916434 80.98227295 0 75 C-0.36076355 71.43118286 -0.36076355 71.43118286 -0.34057617 67.43408203 C-0.34101425 66.70168808 -0.34145233 65.96929413 -0.34190369 65.21470642 C-0.33982627 62.81213007 -0.3165458 60.4102658 -0.29296875 58.0078125 C-0.28736905 56.33487326 -0.28310072 54.66192908 -0.28010559 52.98898315 C-0.26868625 48.59946966 -0.23924438 44.21025698 -0.20599365 39.82086182 C-0.1752298 35.3363451 -0.16158679 30.85177947 -0.14648438 26.3671875 C-0.11437166 17.57798741 -0.06321085 8.7890312 0 0 Z " fill="#69A982" transform="translate(320,134)"/>
<path d="M0 0 C2.33294775 -0.04241723 4.66702567 -0.04092937 7 0 C8 1 8 1 8.09765625 3.72265625 C8.04882812 8.36132812 8.04882812 8.36132812 8 13 C12.29 13 16.58 13 21 13 C21 8.71 21 4.42 21 0 C23.33294775 -0.04241723 25.66702567 -0.04092937 28 0 C29.90849948 1.90849948 29.13059633 5.31478774 29.1328125 7.84375 C29.13424759 8.87018616 29.13424759 8.87018616 29.13571167 9.9173584 C29.1363933 11.36661877 29.13454023 12.81588218 29.13037109 14.26513672 C29.12502252 16.49062928 29.1303166 18.71592001 29.13671875 20.94140625 C29.13605797 22.34635461 29.1347768 23.75130285 29.1328125 25.15625 C29.13168457 26.44337891 29.13055664 27.73050781 29.12939453 29.05664062 C29 32 29 32 28 33 C25.69 33 23.38 33 21 33 C21 28.38 21 23.76 21 19 C16.71 19 12.42 19 8 19 C8 23.62 8 28.24 8 33 C5.69 33 3.38 33 1 33 C0 32 0 32 -0.11352539 28.94897461 C-0.11336634 27.60008729 -0.10767612 26.25119386 -0.09765625 24.90234375 C-0.0962413 24.19348526 -0.09482635 23.48462677 -0.09336853 22.75428772 C-0.08775443 20.48198288 -0.07519963 18.20977525 -0.0625 15.9375 C-0.05748681 14.40039204 -0.05292359 12.86328255 -0.04882812 11.32617188 C-0.03778042 7.55074358 -0.02050641 3.77538829 0 0 Z " fill="#2AA03D" transform="translate(328,240)"/>
<path d="M0 0 C11.88 0 23.76 0 36 0 C36 0.33 36 0.66 36 1 C24.78 1.33 13.56 1.66 2 2 C1.67 2.99 1.34 3.98 1 5 C7.6 5 14.2 5 21 5 C21 7.31 21 9.62 21 12 C16.38 12 11.76 12 7 12 C7 19.26 7 26.52 7 34 C10.96 33.34 14.92 32.68 19 32 C18.67 32.66 18.34 33.32 18 34 C15.93359375 34.4140625 15.93359375 34.4140625 13.4375 34.625 C12.61121094 34.69976562 11.78492188 34.77453125 10.93359375 34.8515625 C10.29550781 34.90054688 9.65742188 34.94953125 9 35 C9 37.64 9 40.28 9 43 C10.98 43.33 12.96 43.66 15 44 C15 44.99 15 45.98 15 47 C12.525 47.495 12.525 47.495 10 48 C9.67 50.31 9.34 52.62 9 55 C10.98 55 12.96 55 15 55 C15 56.65 15 58.3 15 60 C13.35 60 11.7 60 10 60 C10.08087857 64.08414438 10.19372403 68.16679586 10.3125 72.25 C10.33505859 73.40886719 10.35761719 74.56773437 10.38085938 75.76171875 C10.41630859 76.87675781 10.45175781 77.99179688 10.48828125 79.140625 C10.51446533 80.16704102 10.54064941 81.19345703 10.56762695 82.25097656 C11.06017856 85.38261467 11.7415397 86.79086795 14 89 C18.12734567 89.7908869 18.12734567 89.7908869 22 89 C25.30475375 86.23411663 26.7275662 84.52416402 27.49023438 80.25732422 C27.7158235 77.03861447 27.79539874 73.85143849 27.8125 70.625 C27.83763672 69.50738281 27.86277344 68.38976562 27.88867188 67.23828125 C27.94735666 64.49183335 27.98377396 61.74697249 28 59 C28.99 59 29.98 59 31 59 C31.14570522 63.20796686 31.23421087 67.41528166 31.3125 71.625 C31.35439453 72.81480469 31.39628906 74.00460938 31.43945312 75.23046875 C31.57762216 85.12337154 31.57762216 85.12337154 28.73046875 88.7109375 C23.89223958 92.76702089 20.60639679 93.50123603 14.34765625 93.390625 C12 93 12 93 9.4375 90.6875 C8 88 8 88 7 85 C6.34 84.67 5.68 84.34 5 84 C5 59.91 5 35.82 5 11 C9.95 11 14.9 11 20 11 C20 9.35 20 7.7 20 6 C13.4 6 6.8 6 0 6 C0 4.02 0 2.04 0 0 Z " fill="#BBD1BD" transform="translate(320,124)"/>
<path d="M0 0 C3.31248187 -0.02888146 6.62493167 -0.04675799 9.9375 -0.0625 C10.88302734 -0.07087891 11.82855469 -0.07925781 12.80273438 -0.08789062 C14.15141602 -0.09272461 14.15141602 -0.09272461 15.52734375 -0.09765625 C16.77632446 -0.10551147 16.77632446 -0.10551147 18.05053711 -0.11352539 C20 0 20 0 21 1 C21.125 3.5 21.125 3.5 21 6 C20 7 20 7 17.49609375 7.09765625 C15.98208984 7.08025391 15.98208984 7.08025391 14.4375 7.0625 C13.42558594 7.05347656 12.41367187 7.04445312 11.37109375 7.03515625 C10.19740234 7.01775391 10.19740234 7.01775391 9 7 C9 8.98 9 10.96 9 13 C12.3 13 15.6 13 19 13 C19 15.31 19 17.62 19 20 C15.7 20 12.4 20 9 20 C9 21.98 9 23.96 9 26 C12.96 26 16.92 26 21 26 C21 27.98 21 29.96 21 32 C19.44393249 33.55606751 17.94042629 33.12970769 15.78125 33.1328125 C14.50701172 33.13474609 14.50701172 33.13474609 13.20703125 33.13671875 C11.86705078 33.13091797 11.86705078 33.13091797 10.5 33.125 C9.60667969 33.12886719 8.71335937 33.13273437 7.79296875 33.13671875 C6.94347656 33.13542969 6.09398437 33.13414062 5.21875 33.1328125 C4.43435547 33.13168457 3.64996094 33.13055664 2.84179688 33.12939453 C1 33 1 33 0 32 C-0.0883967 29.6243148 -0.11530305 27.27791326 -0.09765625 24.90234375 C-0.0962413 24.19348526 -0.09482635 23.48462677 -0.09336853 22.75428772 C-0.08775443 20.48198288 -0.07519963 18.20977525 -0.0625 15.9375 C-0.05748681 14.40039204 -0.05292359 12.86328255 -0.04882812 11.32617188 C-0.03778042 7.55074358 -0.02050641 3.77538829 0 0 Z " fill="#28A03C" transform="translate(440,240)"/>
<path d="M0 0 C3.00197464 1.80118478 4.45166366 2.90332732 6 6 C6.66712053 10.07027966 6.7349409 13.58996681 4.80078125 17.30078125 C2.20757117 20.87379362 0.10237138 23.22527847 -4 25 C-4 25.99 -4 26.98 -4 28 C-0.37 28 3.26 28 7 28 C7 29.98 7 31.96 7 34 C-0.59 34 -8.18 34 -16 34 C-16 27 -16 27 -13.6640625 24.234375 C-12.66117187 23.41453125 -11.65828125 22.5946875 -10.625 21.75 C-6.39057722 18.25941694 -6.39057722 18.25941694 -3 14 C-2.83286431 11.37468476 -2.83286431 11.37468476 -3 9 C-4.32 9 -5.64 9 -7 9 C-7.66 10.32 -8.32 11.64 -9 13 C-11.31 13 -13.62 13 -16 13 C-16.59456689 5.98411071 -16.59456689 5.98411071 -14.1875 2 C-9.53523208 -0.91907006 -5.35331463 -0.8922191 0 0 Z " fill="#306A98" transform="translate(317,238)"/>
<path d="M0 0 C2.64 0 5.28 0 8 0 C8 3.3 8 6.6 8 10 C11.96 10 15.92 10 20 10 C20 12.97 20 15.94 20 19 C15.05 19.495 15.05 19.495 10 20 C9.67 23.3 9.34 26.6 9 30 C6.03 30 3.06 30 0 30 C0 26.37 0 22.74 0 19 C-3.63 19 -7.26 19 -11 19 C-11 16.03 -11 13.06 -11 10 C-7.37 10 -3.74 10 0 10 C0 6.7 0 3.4 0 0 Z " fill="#F2F2F8" transform="translate(357,158)"/>
<path d="M0 0 C1.1127832 -0.01836914 1.1127832 -0.01836914 2.24804688 -0.03710938 C4.18763629 -0.04238478 6.1267371 0.06561098 8.0625 0.1875 C10.0625 2.1875 10.0625 2.1875 10.2578125 4.5703125 C10.23460937 5.47523438 10.21140625 6.38015625 10.1875 7.3125 C10.16945313 8.22257813 10.15140625 9.13265625 10.1328125 10.0703125 C10.10960937 10.76898438 10.08640625 11.46765625 10.0625 12.1875 C12.3725 12.1875 14.6825 12.1875 17.0625 12.1875 C17.0625 13.1775 17.0625 14.1675 17.0625 15.1875 C13.4325 15.1875 9.8025 15.1875 6.0625 15.1875 C6.0625 11.8875 6.0625 8.5875 6.0625 5.1875 C2.4325 5.1875 -1.1975 5.1875 -4.9375 5.1875 C-4.9375 8.4875 -4.9375 11.7875 -4.9375 15.1875 C-8.2375 15.5175 -11.5375 15.8475 -14.9375 16.1875 C-15.2675 19.8175 -15.5975 23.4475 -15.9375 27.1875 C-12.6375 27.1875 -9.3375 27.1875 -5.9375 27.1875 C-5.8125 35.8125 -5.8125 35.8125 -6.9375 39.1875 C-6.2775 39.1875 -5.6175 39.1875 -4.9375 39.1875 C-4.9375 39.8475 -4.9375 40.5075 -4.9375 41.1875 C-6.2575 40.8575 -7.5775 40.5275 -8.9375 40.1875 C-8.9375 36.8875 -8.9375 33.5875 -8.9375 30.1875 C-13.8875 30.6825 -13.8875 30.6825 -18.9375 31.1875 C-21.06151038 26.93947923 -21.1751107 24.01988937 -21.0625 19.4375 C-21.05347656 18.74011719 -21.04445313 18.04273438 -21.03515625 17.32421875 C-21.01169888 15.61183042 -20.97583104 13.89961996 -20.9375 12.1875 C-15.4925 11.1975 -15.4925 11.1975 -9.9375 10.1875 C-9.793125 8.723125 -9.64875 7.25875 -9.5 5.75 C-8.83289819 -1.01631834 -6.20301561 0.00536129 0 0 Z " fill="#0E5883" transform="translate(360.9375,151.8125)"/>
<path d="M0 0 C12.01041124 -1.49921916 12.01041124 -1.49921916 16.48828125 1.875 C20.36661472 7.0139926 21.75479153 11.46912196 21.34375 17.87109375 C21 20 21 20 20 23 C19.34 23 18.68 23 18 23 C17.731875 23.598125 17.46375 24.19625 17.1875 24.8125 C15.93106721 27.12698145 15.09720831 28.40901439 13 30 C10.08203125 30.29296875 10.08203125 30.29296875 6.8125 30.1875 C5.72582031 30.16042969 4.63914062 30.13335937 3.51953125 30.10546875 C2.27236328 30.05326172 2.27236328 30.05326172 1 30 C1 28.68 1 27.36 1 26 C2.258125 25.79375 3.51625 25.5875 4.8125 25.375 C8.1522284 24.52381258 8.81541002 24.24227435 11 21.375 C12.24240994 17.18186646 12.42269128 14.3678099 12 10 C10.89156586 7.7269131 10.89156586 7.7269131 9 6 C6.50592748 5.3049261 6.50592748 5.3049261 3.8125 5.25 C2.46091797 5.16492188 2.46091797 5.16492188 1.08203125 5.078125 C0.39496094 5.05234375 -0.29210937 5.0265625 -1 5 C-0.67 3.35 -0.34 1.7 0 0 Z " fill="#2B9F3B" transform="translate(373,241)"/>
<path d="M0 0 C0.66 0 1.32 0 2 0 C2.00142502 0.91962021 2.00285004 1.83924042 2.00431824 2.78672791 C2.02219674 11.48141738 2.06395373 20.17560101 2.13209057 28.87004757 C2.16628495 33.33929505 2.19145873 37.80820344 2.19555664 42.27758789 C2.1998559 46.59621098 2.22845218 50.91407012 2.27343178 55.2324543 C2.28635507 56.87450258 2.29073288 58.51664253 2.28615379 60.15873528 C2.21192728 72.89061617 2.21192728 72.89061617 8 84 C8.99 84.99 8.99 84.99 10 86 C9.34 86 8.68 86 8 86 C8 86.99 8 87.98 8 89 C-7.18 89 -22.36 89 -38 89 C-38 88.67 -38 88.34 -38 88 C-23.48 88 -8.96 88 6 88 C3.525 84.04 3.525 84.04 1 80 C0.67 79.01 0.34 78.02 0 77 C-14.85 76.505 -14.85 76.505 -30 76 C-30 54.88 -30 33.76 -30 12 C-33.63 12 -37.26 12 -41 12 C-39.04783565 8.09567131 -37.12613393 5.96160056 -34 3 C-33.34 3.33 -32.68 3.66 -32 4 C-33.65 5.65 -35.3 7.3 -37 9 C-35.865625 9.144375 -34.73125 9.28875 -33.5625 9.4375 C-30 10 -30 10 -29 11 C-28.90594858 12.9943173 -28.88256751 14.99199543 -28.88647461 16.98852539 C-28.88655014 18.26977798 -28.88662567 19.55103058 -28.88670349 20.87110901 C-28.89181091 22.27995848 -28.89702691 23.68880756 -28.90234375 25.09765625 C-28.90420798 26.53112234 -28.90563186 27.96458907 -28.90663147 29.39805603 C-28.91045628 33.17759957 -28.92028623 36.9571049 -28.93133545 40.7366333 C-28.9433452 45.26787781 -28.94795199 49.79913507 -28.95378876 54.33039093 C-28.96349802 61.22028722 -28.9826548 68.11009962 -29 75 C-19.1 75 -9.2 75 1 75 C0.67 50.25 0.34 25.5 0 0 Z " fill="#CBCCDB" transform="translate(318,134)"/>
<path d="M0 0 C5.61 0 11.22 0 17 0 C17 0.66 17 1.32 17 2 C16.30132812 1.97679687 15.60265625 1.95359375 14.8828125 1.9296875 C13.51769531 1.90261719 13.51769531 1.90261719 12.125 1.875 C11.22007812 1.85179687 10.31515625 1.82859375 9.3828125 1.8046875 C6.81193006 1.75675164 6.81193006 1.75675164 5 4 C4.69882969 7.13018458 4.69882969 7.13018458 4.75708008 10.86474609 C4.75518173 11.57062363 4.75328339 12.27650116 4.75132751 13.00376892 C4.74761451 15.34377045 4.75833335 17.68346341 4.76953125 20.0234375 C4.77072315 21.64767419 4.77117619 23.27191158 4.7709198 24.89614868 C4.77248571 28.30418194 4.78078183 31.71211032 4.79418945 35.12011719 C4.81115244 39.48712183 4.81500458 43.85401082 4.81424427 48.22104454 C4.81451638 51.5770681 4.82000471 54.93306642 4.82724571 58.28908157 C4.83042692 59.89902175 4.83239851 61.50896478 4.83313942 63.11890793 C4.83531031 65.37147627 4.84407153 67.62392274 4.85473633 69.87646484 C4.85854813 71.15838715 4.86235992 72.44030945 4.86628723 73.76107788 C4.87410854 76.87937357 4.87410854 76.87937357 5.63407898 79.32022095 C5.81520988 80.15171158 5.81520988 80.15171158 6 81 C5.01 81.99 5.01 81.99 4 83 C4 82.34 4 81.68 4 81 C3.01 80.67 2.02 80.34 1 80 C1 54.59 1 29.18 1 3 C0.34 3 -0.32 3 -1 3 C-0.67 2.01 -0.34 1.02 0 0 Z " fill="#29A236" transform="translate(321,131)"/>
<path d="M0 0 C2.31 0 4.62 0 7 0 C7 8.58 7 17.16 7 26 C10.3 26 13.6 26 17 26 C17 27.65 17 29.3 17 31 C11.39 31 5.78 31 0 31 C0 20.77 0 10.54 0 0 Z " fill="#12598B" transform="translate(217,241)"/>
<path d="M0 0 C0.66 0 1.32 0 2 0 C2.66 0.99 3.32 1.98 4 3 C4.66 3 5.32 3 6 3 C6 4.65 6 6.3 6 8 C9.43793339 7.81870185 9.43793339 7.81870185 13 7 C14.51294288 5.06402968 14.51294288 5.06402968 15 3 C17.475 3.495 17.475 3.495 20 4 C20.41670951 7.41946924 20.2031817 8.71433 18.171875 11.5703125 C17.37265625 12.41335937 16.5734375 13.25640625 15.75 14.125 C14.96109375 14.97320312 14.1721875 15.82140625 13.359375 16.6953125 C11 19 11 19 8.75 20.57421875 C6.58876204 22.02747323 6.58876204 22.02747323 6.25 25.6875 C6.1675 26.780625 6.085 27.87375 6 29 C5.67 29 5.34 29 5 29 C5 27.35 5 25.7 5 24 C4.01 24.33 3.02 24.66 2 25 C1.95101563 24.39671875 1.90203125 23.7934375 1.8515625 23.171875 C1.77679688 22.37265625 1.70203125 21.5734375 1.625 20.75 C1.55539062 19.96109375 1.48578125 19.1721875 1.4140625 18.359375 C1.10854564 15.95506678 1.10854564 15.95506678 -0.09765625 13.8125 C-0.39542969 13.214375 -0.69320313 12.61625 -1 12 C-0.690625 11.4225 -0.38125 10.845 -0.0625 10.25 C1.60432059 6.72026227 0.63366198 3.80197188 0 0 Z " fill="#F1F1F7" transform="translate(295,243)"/>
<path d="M0 0 C7.11111111 -0.35555556 7.11111111 -0.35555556 10.5 1 C12.419738 3.55965066 12.54643174 5.70528582 12.40625 8.859375 C11.72484297 12.44986588 10.0156299 14.97655515 8 18 C4.45722809 18.20839835 1.49255369 18.13623826 -1.9375 17.1875 C-4.57720074 14.38781739 -4.30278982 13.08976046 -4.3125 9.3125 C-4.23205586 7.54043055 -4.13513292 5.7687398 -4 4 C-2.68 3.34 -1.36 2.68 0 2 C0 1.34 0 0.68 0 0 Z " fill="#F3F6F4" transform="translate(374,248)"/>
<path d="M0 0 C0.33 0.66 0.66 1.32 1 2 C1.66 2 2.32 2 3 2 C1.125 7.75 1.125 7.75 0 10 C7.26 9.67 14.52 9.34 22 9 C17.71 8.67 13.42 8.34 9 8 C8.67 6.68 8.34 5.36 8 4 C14.6 4 21.2 4 28 4 C27.67 5.32 27.34 6.64 27 8 C33.6 8 40.2 8 47 8 C45 11 45 11 42 12 C40.51155284 12.08650584 39.01951743 12.11770173 37.52856445 12.11352539 C36.17750359 12.11341209 36.17750359 12.11341209 34.79914856 12.11329651 C33.83031235 12.10813522 32.86147614 12.10297394 31.86328125 12.09765625 C30.37141548 12.09553383 30.37141548 12.09553383 28.84941101 12.09336853 C25.67041018 12.08776761 22.49147957 12.07521496 19.3125 12.0625 C17.15820414 12.05748512 15.00390718 12.05292219 12.84960938 12.04882812 C7.56638226 12.03779788 2.28319615 12.02105886 -3 12 C-3 11.01 -3 10.02 -3 9 C-4.32 8.67 -5.64 8.34 -7 8 C-5.71034824 6.62437146 -4.37310707 5.29233607 -3 4 C-2.34 4 -1.68 4 -1 4 C-0.67 2.68 -0.34 1.36 0 0 Z " fill="#43759E" transform="translate(355,211)"/>
<path d="M0 0 C2.64 0 5.28 0 8 0 C8 10.23 8 20.46 8 31 C6.02 31 4.04 31 2 31 C2 25.06 2 19.12 2 13 C0.35 12.67 -1.3 12.34 -3 12 C-2.88541307 10.56163249 -2.75790884 9.12429034 -2.625 7.6875 C-2.55539062 6.88699219 -2.48578125 6.08648437 -2.4140625 5.26171875 C-2 3 -2 3 0 0 Z " fill="#269F36" transform="translate(426,241)"/>
<path d="M0 0 C0.66 0 1.32 0 2 0 C2.33 25.41 2.66 50.82 3 77 C3.99 77.33 4.98 77.66 6 78 C6.33 76.68 6.66 75.36 7 74 C9.0625 76.625 9.0625 76.625 11 80 C10.67 81.98 10.34 83.96 10 86 C15.94 86 21.88 86 28 86 C27 88 27 88 25.4375 88.625 C18.74115161 89.65520745 14.01170653 89.28942433 8 86 C3.15946785 81.92955251 0.28422803 77.81169725 -0.36076355 71.43118286 C-0.35410172 70.11213959 -0.34743988 68.79309631 -0.34057617 67.43408203 C-0.34101425 66.70168808 -0.34145233 65.96929413 -0.34190369 65.21470642 C-0.33982627 62.81213007 -0.3165458 60.4102658 -0.29296875 58.0078125 C-0.28736905 56.33487326 -0.28310072 54.66192908 -0.28010559 52.98898315 C-0.26868625 48.59946966 -0.23924438 44.21025698 -0.20599365 39.82086182 C-0.1752298 35.3363451 -0.16158679 30.85177947 -0.14648438 26.3671875 C-0.11437166 17.57798741 -0.06321085 8.7890312 0 0 Z " fill="#61A76B" transform="translate(320,134)"/>
<path d="M0 0 C0.66 0.33 1.32 0.66 2 1 C2.25 3.25 2.25 3.25 2 6 C0.125 8.3125 0.125 8.3125 -2 10 C-2.66 10 -3.32 10 -4 10 C-4 10.99 -4 11.98 -4 13 C-0.37 13 3.26 13 7 13 C7 14.98 7 16.96 7 19 C-0.59 19 -8.18 19 -16 19 C-16 12 -16 12 -14 10 C-13.23300781 9.71382813 -12.46601563 9.42765625 -11.67578125 9.1328125 C-8.58034842 7.82233729 -6.64787143 6.15176162 -4.1875 3.875 C-3.39730469 3.15054687 -2.60710937 2.42609375 -1.79296875 1.6796875 C-1.20128906 1.12539062 -0.60960937 0.57109375 0 0 Z " fill="#1D618D" transform="translate(317,253)"/>
<path d="M0 0 C1.45792884 -0.05399736 2.91642712 -0.09279177 4.375 -0.125 C5.18710937 -0.14820313 5.99921875 -0.17140625 6.8359375 -0.1953125 C9 0 9 0 11 2 C11.1875 4.5625 11.1875 4.5625 11 7 C10 8 10 8 8.15234375 8.09765625 C6.1015625 8.06510417 4.05078125 8.03255208 2 8 C2 8.99 2 9.98 2 11 C3.918125 11.185625 3.918125 11.185625 5.875 11.375 C9.75 11.75 9.75 11.75 12 14 C12.125 16.625 12.125 16.625 12 19 C9.47524538 20.26237731 7.68799534 20.09856404 4.875 20.0625 C3.96492188 20.05347656 3.05484375 20.04445313 2.1171875 20.03515625 C1.06917969 20.01775391 1.06917969 20.01775391 0 20 C0 19.34 0 18.68 0 18 C-1.32 18 -2.64 18 -4 18 C-4.08090971 16.37581255 -4.13914995 14.75048255 -4.1875 13.125 C-4.22230469 12.22007812 -4.25710938 11.31515625 -4.29296875 10.3828125 C-4.19628906 9.59648437 -4.09960938 8.81015625 -4 8 C-3.01 7.34 -2.02 6.68 -1 6 C-0.26656572 2.93443402 -0.26656572 2.93443402 0 0 Z " fill="#2C6998" transform="translate(278,246)"/>
<path d="M0 0 C0 2.64 0 5.28 0 8 C-4.455 8.495 -4.455 8.495 -9 9 C-9.33 11.64 -9.66 14.28 -10 17 C-10.61875 17.061875 -11.2375 17.12375 -11.875 17.1875 C-14.27761141 17.828919 -14.27761141 17.828919 -15.25 20.5625 C-15.4975 21.366875 -15.745 22.17125 -16 23 C-15.34 23.66 -14.68 24.32 -14 25 C-15.65 25 -17.3 25 -19 25 C-19.04241723 22.66705225 -19.04092937 20.33297433 -19 18 C-18 17 -18 17 -15.4375 16.9375 C-14.2309375 16.9684375 -14.2309375 16.9684375 -13 17 C-13 16.01 -13 15.02 -13 14 C-15.97 13.505 -15.97 13.505 -19 13 C-19 10.36 -19 7.72 -19 5 C-18.37351562 4.89042969 -17.74703125 4.78085938 -17.1015625 4.66796875 C-15.87566406 4.43013672 -15.87566406 4.43013672 -14.625 4.1875 C-13.81289063 4.03667969 -13.00078125 3.88585937 -12.1640625 3.73046875 C-9.64179359 3.12455058 -9.64179359 3.12455058 -8 0 C-5.0187907 -1.19248372 -3.02213602 -0.97140086 0 0 Z " fill="#36A342" transform="translate(348,154)"/>
<path d="M0 0 C6.6 0 13.2 0 20 0 C20 0.33 20 0.66 20 1 C14.06 1 8.12 1 2 1 C2 10.9 2 20.8 2 31 C7.61 31 13.22 31 19 31 C19 30.01 19 29.02 19 28 C15.37 28 11.74 28 8 28 C7.90234375 21.06640625 7.90234375 21.06640625 8 19 C9 18 9 18 11.06640625 17.90234375 C12.30197266 17.91974609 12.30197266 17.91974609 13.5625 17.9375 C14.38878906 17.94652344 15.21507812 17.95554687 16.06640625 17.96484375 C17.02353516 17.98224609 17.02353516 17.98224609 18 18 C18 16.68 18 15.36 18 14 C14.7 14 11.4 14 8 14 C8 11.36 8 8.72 8 6 C11.96 6 15.92 6 20 6 C20 6.33 20 6.66 20 7 C16.37 7 12.74 7 9 7 C9 8.98 9 10.96 9 13 C12.3 13 15.6 13 19 13 C19 15.31 19 17.62 19 20 C15.7 20 12.4 20 9 20 C9 21.98 9 23.96 9 26 C12.96 26 16.92 26 21 26 C21 27.98 21 29.96 21 32 C19.44393249 33.55606751 17.94042629 33.12970769 15.78125 33.1328125 C14.50701172 33.13474609 14.50701172 33.13474609 13.20703125 33.13671875 C11.86705078 33.13091797 11.86705078 33.13091797 10.5 33.125 C9.60667969 33.12886719 8.71335937 33.13273437 7.79296875 33.13671875 C6.94347656 33.13542969 6.09398437 33.13414062 5.21875 33.1328125 C4.43435547 33.13168457 3.64996094 33.13055664 2.84179688 33.12939453 C1 33 1 33 0 32 C-0.0883967 29.6243148 -0.11530305 27.27791326 -0.09765625 24.90234375 C-0.0962413 24.19348526 -0.09482635 23.48462677 -0.09336853 22.75428772 C-0.08775443 20.48198288 -0.07519963 18.20977525 -0.0625 15.9375 C-0.05748681 14.40039204 -0.05292359 12.86328255 -0.04882812 11.32617188 C-0.0386297 7.55071333 -0.01905732 3.77546596 0 0 Z " fill="#7AB483" transform="translate(440,240)"/>
<path d="M0 0 C1.32 0 2.64 0 4 0 C4 1.65 4 3.3 4 5 C2.35 5 0.7 5 -1 5 C-0.91912143 9.08414438 -0.80627597 13.16679586 -0.6875 17.25 C-0.66494141 18.40886719 -0.64238281 19.56773437 -0.61914062 20.76171875 C-0.58369141 21.87675781 -0.54824219 22.99179688 -0.51171875 24.140625 C-0.48553467 25.16704102 -0.45935059 26.19345703 -0.43237305 27.25097656 C0.06017856 30.38261467 0.7415397 31.79086795 3 34 C7.12734567 34.7908869 7.12734567 34.7908869 11 34 C14.30475375 31.23411663 15.7275662 29.52416402 16.49023438 25.25732422 C16.7158235 22.03861447 16.79539874 18.85143849 16.8125 15.625 C16.83763672 14.50738281 16.86277344 13.38976562 16.88867188 12.23828125 C16.94735666 9.49183335 16.98377396 6.74697249 17 4 C17.99 4 18.98 4 20 4 C20.14570522 8.20796686 20.23421087 12.41528166 20.3125 16.625 C20.35439453 17.81480469 20.39628906 19.00460938 20.43945312 20.23046875 C20.57762216 30.12337154 20.57762216 30.12337154 17.73046875 33.7109375 C13.74216256 37.05449605 11.22130029 38.30219191 6 38.4375 C5.154375 38.47746094 4.30875 38.51742187 3.4375 38.55859375 C-0.13714318 37.73940469 -1.04574926 36.04125778 -3 33 C-3.36230469 29.77026367 -3.36230469 29.77026367 -3.171875 26.16796875 C-3.11386719 24.87568359 -3.05585938 23.58339844 -2.99609375 22.25195312 C-2.91451801 20.89710791 -2.83248097 19.5422904 -2.75 18.1875 C-2.6816678 16.81324545 -2.61524143 15.43889473 -2.55078125 14.06445312 C-2.38591342 10.70821523 -2.20165125 7.35419587 -2 4 C-0.35 3.67 1.3 3.34 3 3 C3 2.34 3 1.68 3 1 C2.01 0.67 1.02 0.34 0 0 Z " fill="#DAE1DF" transform="translate(331,179)"/>
<path d="M0 0 C3.63 0 7.26 0 11 0 C11 3.3 11 6.6 11 10 C14.63 10 18.26 10 22 10 C22 9.01 22 8.02 22 7 C19.69 7 17.38 7 15 7 C15 6.67 15 6.34 15 6 C16.45823212 5.9729957 17.91660675 5.95360213 19.375 5.9375 C20.18710937 5.92589844 20.99921875 5.91429687 21.8359375 5.90234375 C24 6 24 6 26 7 C26.05382106 9.62527189 26.09358313 12.24944713 26.125 14.875 C26.14175781 15.62136719 26.15851563 16.36773437 26.17578125 17.13671875 C26.1933959 19.09194461 26.10320189 21.04742021 26 23 C24 25 24 25 21.8359375 25.1953125 C21.02382813 25.17210937 20.21171875 25.14890625 19.375 25.125 C18.55773437 25.10695312 17.74046875 25.08890625 16.8984375 25.0703125 C16.27195312 25.04710937 15.64546875 25.02390625 15 25 C15.66 24.67 16.32 24.34 17 24 C17 23.34 17 22.68 17 22 C15.02 22 13.04 22 11 22 C11 21.34 11 20.68 11 20 C14.3 20 17.6 20 21 20 C21 17.03 21 14.06 21 11 C17.04 11 13.08 11 9 11 C9 7.7 9 4.4 9 1 C6.36 1 3.72 1 1 1 C1 4.3 1 7.6 1 11 C-2.63 11 -6.26 11 -10 11 C-10 10.67 -10 10.34 -10 10 C-6.7 10 -3.4 10 0 10 C0 6.7 0 3.4 0 0 Z " fill="#4575A5" transform="translate(356,157)"/>
<path d="M0 0 C1.32 0 2.64 0 4 0 C4 9.57 4 19.14 4 29 C2.68 29 1.36 29 0 29 C-0.33 25.04 -0.66 21.08 -1 17 C-4.3 16.34 -7.6 15.68 -11 15 C-11 14.34 -11 13.68 -11 13 C-8.04335481 11.5216774 -5.25770263 11.93967217 -2 12 C-1.34 8.04 -0.68 4.08 0 0 Z " fill="#25A036" transform="translate(351,242)"/>
<path d="M0 0 C2.61527381 2.36620011 4.26440562 4.942048 6 8 C9.31726155 7.42805835 10.72635823 6.42999536 13 4 C13.37952295 10.19887485 12.8352113 14.4477112 10 20 C7.69 20 5.38 20 3 20 C1.38887007 16.31547501 0.47312459 12.83874757 -0.1875 8.875 C-0.36667969 7.84117187 -0.54585938 6.80734375 -0.73046875 5.7421875 C-1 3 -1 3 0 0 Z " fill="#38A146" transform="translate(410,252)"/>
<path d="M0 0 C5.28 0 10.56 0 16 0 C15.67 0.99 15.34 1.98 15 3 C9.555 3.495 9.555 3.495 4 4 C4 5.98 4 7.96 4 10 C2.02 10.99 2.02 10.99 0 12 C0 15.3 0 18.6 0 22 C1.32 22 2.64 22 4 22 C4 22.66 4 23.32 4 24 C4.66 24 5.32 24 6 24 C6 24.66 6 25.32 6 26 C7.32 26.33 8.64 26.66 10 27 C6.35157547 29.3349917 3.23895694 29.07914039 -1 29 C-1.02918874 25.29168337 -1.04686218 21.58339658 -1.0625 17.875 C-1.07087891 16.82828125 -1.07925781 15.7815625 -1.08789062 14.703125 C-1.09111328 13.68476563 -1.09433594 12.66640625 -1.09765625 11.6171875 C-1.10289307 10.68503418 -1.10812988 9.75288086 -1.11352539 8.79248047 C-1 6 -1 6 0 0 Z " fill="#0A5786" transform="translate(274,242)"/>
<path d="M0 0 C1.95803507 -0.05389087 3.91648909 -0.09274217 5.875 -0.125 C7.51082031 -0.15980469 7.51082031 -0.15980469 9.1796875 -0.1953125 C12 0 12 0 14 2 C14.1953125 4.3828125 14.1953125 4.3828125 14.125 7.125 C14.10695313 8.03507813 14.08890625 8.94515625 14.0703125 9.8828125 C14.04710937 10.58148438 14.02390625 11.28015625 14 12 C16.31 12 18.62 12 21 12 C21 12.99 21 13.98 21 15 C17.37 15 13.74 15 10 15 C10 11.7 10 8.4 10 5 C6.37 5 2.74 5 -1 5 C-1 8.3 -1 11.6 -1 15 C-1.33 15 -1.66 15 -2 15 C-2.33 10.71 -2.66 6.42 -3 2 C-2.01 2 -1.02 2 0 2 C0 1.34 0 0.68 0 0 Z " fill="#1F6292" transform="translate(357,152)"/>
<path d="M0 0 C1.72974441 0.00015918 3.45949355 0.0058569 5.18920898 0.01586914 C6.09783188 0.01728409 7.00645477 0.01869904 7.94261169 0.02015686 C10.85687494 0.02577346 13.77106254 0.03832874 16.68530273 0.05102539 C18.65600475 0.05603825 20.62670797 0.06060153 22.59741211 0.06469727 C27.43923832 0.07574828 32.28100768 0.09302401 37.12280273 0.11352539 C37.61780273 1.10352539 37.61780273 1.10352539 38.12280273 2.11352539 C36.89126465 2.10305176 35.65972656 2.09257813 34.39086914 2.08178711 C29.83246759 2.0456545 25.27407875 2.02264954 20.71557617 2.00366211 C18.74061964 1.99358912 16.76567807 1.97993018 14.79077148 1.96264648 C11.95609855 1.938455 9.12162236 1.92705548 6.28686523 1.91821289 C5.40036285 1.90789032 4.51386047 1.89756775 3.60049438 1.88693237 C1.43994322 1.88653469 -0.72013445 1.99080005 -2.87719727 2.11352539 C-5.63943005 4.87575817 -5.45576017 7.32059156 -5.87719727 11.11352539 C-3.36636612 9.85810982 -3.00594281 8.61289051 -1.87719727 6.11352539 C-1.87719727 7.76352539 -1.87719727 9.41352539 -1.87719727 11.11352539 C4.72280273 11.11352539 11.32280273 11.11352539 18.12280273 11.11352539 C18.12280273 12.76352539 18.12280273 14.41352539 18.12280273 16.11352539 C13.50280273 16.11352539 8.88280273 16.11352539 4.12280273 16.11352539 C4.78280273 15.12352539 5.44280273 14.13352539 6.12280273 13.11352539 C9.42280273 13.44352539 12.72280273 13.77352539 16.12280273 14.11352539 C16.12280273 13.45352539 16.12280273 12.79352539 16.12280273 12.11352539 C7.70780273 12.60852539 7.70780273 12.60852539 -0.87719727 13.11352539 C-1.20719727 13.77352539 -1.53719727 14.43352539 -1.87719727 15.11352539 C-6.75219727 14.23852539 -6.75219727 14.23852539 -7.87719727 13.11352539 C-8.26317653 8.09579498 -7.87492288 5.19043222 -4.87719727 1.11352539 C-3.87719727 0.11352539 -3.87719727 0.11352539 0 0 Z " fill="#76B280" transform="translate(321.877197265625,118.886474609375)"/>
<path d="M0 0 C3.3 0 6.6 0 10 0 C10 10.89 10 21.78 10 33 C7.36 33 4.72 33 2 33 C1.67 28.05 1.34 23.1 1 18 C0.01 18.99 -0.98 19.98 -2 21 C-2.33 19.68 -2.66 18.36 -3 17 C-3.66 18.32 -4.32 19.64 -5 21 C-7.3125 20.8125 -7.3125 20.8125 -10 20 C-11.875 17.6875 -11.875 17.6875 -13 15 C-12.6875 12.6875 -12.6875 12.6875 -12 11 C-11.54625 12.134375 -11.0925 13.26875 -10.625 14.4375 C-9.42904194 18.04721692 -9.42904194 18.04721692 -7 19 C-6.81824219 18.21753906 -6.63648438 17.43507813 -6.44921875 16.62890625 C-6.19785156 15.61699219 -5.94648438 14.60507813 -5.6875 13.5625 C-5.44386719 12.55316406 -5.20023437 11.54382813 -4.94921875 10.50390625 C-4.47935547 9.26447266 -4.47935547 9.26447266 -4 8 C-3.01 7.67 -2.02 7.34 -1 7 C-1 8.98 -1 10.96 -1 13 C0.32 13.33 1.64 13.66 3 14 C3 19.94 3 25.88 3 32 C4.98 32 6.96 32 9 32 C9 21.77 9 11.54 9 1 C4.545 1.495 4.545 1.495 0 2 C0 1.34 0 0.68 0 0 Z " fill="#69B274" transform="translate(425,240)"/>
<path d="M0 0 C2.33294775 -0.04241723 4.66702567 -0.04092937 7 0 C8.90849948 1.90849948 8.13059633 5.31478774 8.1328125 7.84375 C8.13424759 8.87018616 8.13424759 8.87018616 8.13571167 9.9173584 C8.1363933 11.36661877 8.13454023 12.81588218 8.13037109 14.26513672 C8.12502252 16.49062928 8.1303166 18.71592001 8.13671875 20.94140625 C8.13605797 22.34635461 8.1347768 23.75130285 8.1328125 25.15625 C8.13168457 26.44337891 8.13055664 27.73050781 8.12939453 29.05664062 C8 32 8 32 7 33 C4.69 33 2.38 33 0 33 C0 28.38 0 23.76 0 19 C-3.96 19 -7.92 19 -12 19 C-12 18.67 -12 18.34 -12 18 C-9.85423363 17.97314062 -7.70837355 17.95366912 -5.5625 17.9375 C-4.36753906 17.92589844 -3.17257812 17.91429687 -1.94140625 17.90234375 C1 18 1 18 2 19 C2.07244053 21.01964199 2.08377188 23.04167124 2.0625 25.0625 C2.05347656 26.16722656 2.04445313 27.27195312 2.03515625 28.41015625 C2.02355469 29.26480469 2.01195312 30.11945313 2 31 C3.32 31 4.64 31 6 31 C6 21.43 6 11.86 6 2 C4.68 2 3.36 2 2 2 C2 4.97 2 7.94 2 11 C1.01 11.495 1.01 11.495 0 12 C0 8.04 0 4.08 0 0 Z " fill="#63AC6C" transform="translate(349,240)"/>
<path d="M0 0 C7.92 0 15.84 0 24 0 C19.61454919 3.28908811 16.9594022 3.52643191 11.75 3.6875 C11.00492187 3.72166016 10.25984375 3.75582031 9.4921875 3.79101562 C7.66197508 3.87314054 5.83101331 3.93825653 4 4 C4 4.99 4 5.98 4 7 C10.93 7.495 10.93 7.495 18 8 C17.67 8.66 17.34 9.32 17 10 C9.74 10 2.48 10 -5 10 C-4.34 8.02 -3.68 6.04 -3 4 C-2.34 4 -1.68 4 -1 4 C-0.67 2.68 -0.34 1.36 0 0 Z " fill="#105887" transform="translate(360,211)"/>
<path d="M0 0 C0.66 0.33 1.32 0.66 2 1 C0.35 2.65 -1.3 4.3 -3 6 C-1.865625 6.144375 -0.73125 6.28875 0.4375 6.4375 C4 7 4 7 5 8 C5.09405142 9.9943173 5.11743249 11.99199543 5.11352539 13.98852539 C5.11344986 15.26977798 5.11337433 16.55103058 5.11329651 17.87110901 C5.10818909 19.27995848 5.10297309 20.68880756 5.09765625 22.09765625 C5.09579202 23.53112234 5.09436814 24.96458907 5.09336853 26.39805603 C5.08954372 30.17759957 5.07971377 33.9571049 5.06866455 37.7366333 C5.0566548 42.26787781 5.05204801 46.79913507 5.04621124 51.33039093 C5.03650198 58.22028722 5.0173452 65.11009962 5 72 C14.24 72 23.48 72 33 72 C33 72.33 33 72.66 33 73 C23.43 73 13.86 73 4 73 C4 51.88 4 30.76 4 9 C0.37 9 -3.26 9 -7 9 C-5.04783565 5.09567131 -3.12613393 2.96160056 0 0 Z " fill="#BFC5DC" transform="translate(284,137)"/>
<path d="M0 0 C2.64 0 5.28 0 8 0 C9 1 9 1 9.11352539 3.31665039 C9.10828857 4.31688232 9.10305176 5.31711426 9.09765625 6.34765625 C9.09443359 7.42724609 9.09121094 8.50683594 9.08789062 9.61914062 C9.07951172 10.75544922 9.07113281 11.89175781 9.0625 13.0625 C9.05798828 14.20267578 9.05347656 15.34285156 9.04882812 16.51757812 C9.03699747 19.34510351 9.0205141 22.1725264 9 25 C9.93972656 24.96519531 9.93972656 24.96519531 10.8984375 24.9296875 C11.71570313 24.91164063 12.53296875 24.89359375 13.375 24.875 C14.59316406 24.84019531 14.59316406 24.84019531 15.8359375 24.8046875 C18 25 18 25 20 27 C20.99 26.01 21.98 25.02 23 24 C22.51421457 27.12290635 22.0013988 29.99580359 21 33 C14.07 33 7.14 33 0 33 C0 22.11 0 11.22 0 0 Z M1 1 C1 11.23 1 21.46 1 32 C6.61 32 12.22 32 18 32 C18 30.35 18 28.7 18 27 C14.7 27 11.4 27 8 27 C8 18.42 8 9.84 8 1 C5.69 1 3.38 1 1 1 Z " fill="#8499C1" transform="translate(216,240)"/>
<path d="M0 0 C2.33294775 -0.04241723 4.66702567 -0.04092937 7 0 C8 1 8 1 8.09765625 3.50390625 C8.08605469 4.51324219 8.07445312 5.52257812 8.0625 6.5625 C8.05347656 7.57441406 8.04445313 8.58632812 8.03515625 9.62890625 C8.02355469 10.41136719 8.01195312 11.19382813 8 12 C7.67 12 7.34 12 7 12 C7 8.7 7 5.4 7 2 C5.35 2 3.7 2 2 2 C2.33 11.24 2.66 20.48 3 30 C4.32 30.33 5.64 30.66 7 31 C7 27.04 7 23.08 7 19 C7.33 19 7.66 19 8 19 C8 23.62 8 28.24 8 33 C5.69 33 3.38 33 1 33 C0 32 0 32 -0.11352539 28.94897461 C-0.11336634 27.60008729 -0.10767612 26.25119386 -0.09765625 24.90234375 C-0.0962413 24.19348526 -0.09482635 23.48462677 -0.09336853 22.75428772 C-0.08775443 20.48198288 -0.07519963 18.20977525 -0.0625 15.9375 C-0.05748681 14.40039204 -0.05292359 12.86328255 -0.04882812 11.32617188 C-0.03778042 7.55074358 -0.02050641 3.77538829 0 0 Z " fill="#63A86E" transform="translate(328,240)"/>
<path d="M0 0 C3.3 0 6.6 0 10 0 C9.67 0.99 9.34 1.98 9 3 C6.69 2.67 4.38 2.34 2 2 C2 11.57 2 21.14 2 31 C3.65 31 5.3 31 7 31 C7 26.05 7 21.1 7 16 C7.99 15.67 8.98 15.34 10 15 C10 15.66 10 16.32 10 17 C9.34 17 8.68 17 8 17 C8 21.95 8 26.9 8 32 C5.36 32 2.72 32 0 32 C0 21.44 0 10.88 0 0 Z " fill="#69AE75" transform="translate(398,240)"/>
<path d="M0 0 C3.96 0 7.92 0 12 0 C12.33 1.32 12.66 2.64 13 4 C14.9837767 5.28436734 14.9837767 5.28436734 17 6 C16.67 7.65 16.34 9.3 16 11 C15.01 11.33 14.02 11.66 13 12 C12.54625 11.030625 12.0925 10.06125 11.625 9.0625 C10.07592089 6.6597313 9.32899884 6.08199187 6.5078125 5.37890625 C3.99557506 5.1476096 1.5223621 5.00962734 -1 5 C-0.67 3.35 -0.34 1.7 0 0 Z " fill="#2E9F3E" transform="translate(373,241)"/>
<path d="M0 0 C-1.65 0.33 -3.3 0.66 -5 1 C-5 5.95 -5 10.9 -5 16 C-0.48382401 16.07654536 3.59085217 16.10228696 8 15 C8.02712066 16.43739513 8.04645067 17.87493863 8.0625 19.3125 C8.07410156 20.11300781 8.08570313 20.91351563 8.09765625 21.73828125 C8 24 8 24 7 27 C7.66 27 8.32 27 9 27 C9 27.66 9 28.32 9 29 C7.68 28.67 6.36 28.34 5 28 C5 24.7 5 21.4 5 18 C0.05 18.495 0.05 18.495 -5 19 C-7.12401038 14.75197923 -7.2376107 11.83238937 -7.125 7.25 C-7.11597656 6.55261719 -7.10695313 5.85523438 -7.09765625 5.13671875 C-7.07419888 3.42433042 -7.03833104 1.71211996 -7 0 C-3.98968256 -0.93423645 -3.13349732 -1.04449911 0 0 Z " fill="#0F6370" transform="translate(347,164)"/>
<path d="M0 0 C1.59752849 0.00031727 3.19507824 0.01165096 4.79248047 0.03173828 C6.05341019 0.03598312 6.05341019 0.03598312 7.33981323 0.04031372 C10.02990843 0.05152648 12.71967307 0.07663275 15.40966797 0.10205078 C17.23127775 0.11207918 19.05289274 0.12120527 20.87451172 0.12939453 C25.34469155 0.15146937 29.81462368 0.18600644 34.28466797 0.22705078 C34.28466797 0.88705078 34.28466797 1.54705078 34.28466797 2.22705078 C16.95966797 2.72205078 16.95966797 2.72205078 -0.71533203 3.22705078 C-1.70533203 5.20705078 -2.69533203 7.18705078 -3.71533203 9.22705078 C-4.37533203 9.22705078 -5.03533203 9.22705078 -5.71533203 9.22705078 C-5.84033203 5.85205078 -5.84033203 5.85205078 -5.71533203 2.22705078 C-3.71533203 0.22705078 -3.71533203 0.22705078 0 0 Z " fill="#27A436" transform="translate(321.71533203125,120.77294921875)"/>
<path d="M0 0 C0.33 0.66 0.66 1.32 1 2 C1.66 2 2.32 2 3 2 C1.88243734 5.86848614 0.97126708 8.28922757 -2 11 C3.42616005 10.88123473 8.85215616 10.75695421 14.27807617 10.62768555 C16.12179175 10.58452272 17.96554252 10.54283549 19.80932617 10.50268555 C22.4680438 10.44452834 25.12658735 10.38096781 27.78515625 10.31640625 C28.60210464 10.29969376 29.41905304 10.28298126 30.26075745 10.26576233 C34.91635964 10.14675769 39.3889463 9.71164713 44 9 C44.99 9 45.98 9 47 9 C42.1923837 12.84166206 37.52332827 12.38755639 31.66796875 12.29296875 C30.18034782 12.28660149 30.18034782 12.28660149 28.66267395 12.28010559 C25.50400315 12.26335123 22.34597703 12.22570448 19.1875 12.1875 C17.04232694 12.17244899 14.89714385 12.15876132 12.75195312 12.14648438 C7.50108319 12.11345841 2.25058766 12.06329122 -3 12 C-3 11.01 -3 10.02 -3 9 C-4.32 8.67 -5.64 8.34 -7 8 C-5.71034824 6.62437146 -4.37310707 5.29233607 -3 4 C-2.34 4 -1.68 4 -1 4 C-0.67 2.68 -0.34 1.36 0 0 Z " fill="#9FAACD" transform="translate(355,211)"/>
<path d="M0 0 C1.76923828 0.01353516 1.76923828 0.01353516 3.57421875 0.02734375 C4.47785156 0.03894531 5.38148438 0.05054688 6.3125 0.0625 C6.3125 0.3925 6.3125 0.7225 6.3125 1.0625 C2.3525 1.0625 -1.6075 1.0625 -5.6875 1.0625 C-6.0175 2.7125 -6.3475 4.3625 -6.6875 6.0625 C-6.00042969 6.02769531 -5.31335938 5.99289063 -4.60546875 5.95703125 C-3.70441406 5.92996094 -2.80335938 5.90289062 -1.875 5.875 C-0.98167969 5.84019531 -0.08835937 5.80539063 0.83203125 5.76953125 C3.72897515 6.11168998 4.53805028 6.81643573 6.3125 9.0625 C5.9825 9.7225 5.6525 10.3825 5.3125 11.0625 C4.6525 10.4025 3.9925 9.7425 3.3125 9.0625 C0.65712628 8.49729997 -1.97894713 8.32461802 -4.6875 8.0625 C-4.6875 8.7225 -4.6875 9.3825 -4.6875 10.0625 C-5.6775 10.7225 -6.6675 11.3825 -7.6875 12.0625 C-8.26743699 14.25704681 -8.26743699 14.25704681 -8.375 16.6875 C-8.44074219 17.50476563 -8.50648438 18.32203125 -8.57421875 19.1640625 C-8.63029297 20.10378906 -8.63029297 20.10378906 -8.6875 21.0625 C-9.0175 21.0625 -9.3475 21.0625 -9.6875 21.0625 C-9.65269531 19.97582031 -9.65269531 19.97582031 -9.6171875 18.8671875 C-9.51493997 13.38964131 -9.86593536 9.2669704 -11.6875 4.0625 C-8.52263557 -0.68479664 -5.34818972 -0.05295237 0 0 Z " fill="#6CB375" transform="translate(378.6875,239.9375)"/>
<path d="M0 0 C0.33 0 0.66 0 1 0 C1.01030746 0.89313904 1.02061493 1.78627808 1.03123474 2.70648193 C1.12920705 11.12293528 1.23172121 19.53931839 1.33933926 27.95565414 C1.3945066 32.28258496 1.44791667 36.6095226 1.49731445 40.93652344 C1.54504933 45.11220374 1.59739537 49.28780308 1.65294075 53.46338654 C1.67332298 55.05656163 1.69204282 56.64975889 1.70907402 58.24297333 C1.73320966 60.47423815 1.76325142 62.70535105 1.79467773 64.93652344 C1.81022202 66.20671326 1.8257663 67.47690308 1.84178162 68.7855835 C1.87729395 71.88282269 1.87729395 71.88282269 2.63783264 74.31646729 C2.75734787 74.87203308 2.8768631 75.42759888 3 76 C2.01 76.99 2.01 76.99 1 78 C1 77.34 1 76.68 1 76 C0.01 75.67 -0.98 75.34 -2 75 C-2 74.01 -2 73.02 -2 72 C-1.34 72 -0.68 72 0 72 C0 48.24 0 24.48 0 0 Z " fill="#35A13F" transform="translate(324,136)"/>
<path d="M0 0 C0.79792969 0.00386719 1.59585937 0.00773437 2.41796875 0.01171875 C3.21589844 0.00785156 4.01382812 0.00398438 4.8359375 0 C10.79136108 0.01011108 10.79136108 0.01011108 11.91796875 1.13671875 C12.0057248 3.28230702 12.02492094 5.43076296 12.015625 7.578125 C12.01240234 8.88330078 12.00917969 10.18847656 12.00585938 11.53320312 C11.99750276 12.92187565 11.9890378 14.31054752 11.98046875 15.69921875 C11.97545541 17.09179531 11.97089222 18.48437356 11.96679688 19.87695312 C11.95496309 23.29691745 11.93847755 26.71679719 11.91796875 30.13671875 C11.58796875 30.13671875 11.25796875 30.13671875 10.91796875 30.13671875 C10.19237347 20.76876538 9.81231334 11.54005005 9.91796875 2.13671875 C4.63796875 2.13671875 -0.64203125 2.13671875 -6.08203125 2.13671875 C-6.08203125 5.43671875 -6.08203125 8.73671875 -6.08203125 12.13671875 C-7.40203125 12.13671875 -8.72203125 12.13671875 -10.08203125 12.13671875 C-9.75203125 11.47671875 -9.42203125 10.81671875 -9.08203125 10.13671875 C-8.42203125 10.46671875 -7.76203125 10.79671875 -7.08203125 11.13671875 C-7.09363281 10.42644531 -7.10523438 9.71617188 -7.1171875 8.984375 C-7.13072266 7.60572266 -7.13072266 7.60572266 -7.14453125 6.19921875 C-7.15613281 5.28269531 -7.16773438 4.36617188 -7.1796875 3.421875 C-6.98123454 -1.22192416 -3.93967472 0.00668875 0 0 Z " fill="#5B81B0" transform="translate(378.08203125,87.86328125)"/>
<path d="M0 0 C1.32 0 2.64 0 4 0 C4 1.65 4 3.3 4 5 C2.35 5 0.7 5 -1 5 C-0.91912143 9.08414438 -0.80627597 13.16679586 -0.6875 17.25 C-0.66494141 18.40886719 -0.64238281 19.56773437 -0.61914062 20.76171875 C-0.58369141 21.87675781 -0.54824219 22.99179688 -0.51171875 24.140625 C-0.48553467 25.16704102 -0.45935059 26.19345703 -0.43237305 27.25097656 C0.05460887 30.34720266 0.86264135 31.74230047 3 34 C5.02006441 34.89405175 5.02006441 34.89405175 7.1875 35.25 C8.445625 35.4975 9.70375 35.745 11 36 C11 36.66 11 37.32 11 38 C9.41906283 38.1357675 7.83473048 38.23234745 6.25 38.3125 C5.36828125 38.37050781 4.4865625 38.42851562 3.578125 38.48828125 C1 38 1 38 -1.15039062 35.89648438 C-3.44147962 32.30864385 -3.39488414 30.38655833 -3.171875 26.16796875 C-3.11386719 24.87568359 -3.05585938 23.58339844 -2.99609375 22.25195312 C-2.91451801 20.89710791 -2.83248097 19.5422904 -2.75 18.1875 C-2.6816678 16.81324545 -2.61524143 15.43889473 -2.55078125 14.06445312 C-2.38591342 10.70821523 -2.20165125 7.35419587 -2 4 C-0.35 3.67 1.3 3.34 3 3 C3 2.34 3 1.68 3 1 C2.01 0.67 1.02 0.34 0 0 Z " fill="#B3D0B6" transform="translate(331,179)"/>
<path d="M0 0 C2.886495 1.4432475 3.6466075 3.09987322 5 6 C4.67 7.98 4.34 9.96 4 12 C9.94 12 15.88 12 22 12 C21 14 21 14 19.4375 14.625 C12.74115161 15.65520745 8.01170653 15.28942433 2 12 C-1.57235272 8.98334659 -3.59517903 6.46988491 -5 2 C-2.525 2.99 -2.525 2.99 0 4 C0 2.68 0 1.36 0 0 Z " fill="#5EAC6C" transform="translate(326,208)"/>
<path d="M0 0 C-1.58272601 1.58272601 -3.38034003 1.34735747 -5.5625 1.5625 C-6.80193359 1.68818359 -6.80193359 1.68818359 -8.06640625 1.81640625 C-9.02353516 1.90728516 -9.02353516 1.90728516 -10 2 C-10 4.64 -10 7.28 -10 10 C-7.03 10.495 -7.03 10.495 -4 11 C-4.33 11.99 -4.66 12.98 -5 14 C-5 13.34 -5 12.68 -5 12 C-7.31 11.67 -9.62 11.34 -12 11 C-12 24.2 -12 37.4 -12 51 C-12.33 51 -12.66 51 -13 51 C-13.02483449 45.16504217 -13.04292349 39.33011554 -13.05493164 33.49511719 C-13.05994103 31.51268986 -13.0667504 29.53026618 -13.07543945 27.54785156 C-13.08765429 24.68814182 -13.09326239 21.8284812 -13.09765625 18.96875 C-13.10281754 18.09134155 -13.10797882 17.21393311 -13.11329651 16.30993652 C-13.11376359 11.11374994 -12.75216408 6.14282427 -12 1 C-10.37681021 0.63762737 -8.7513642 0.28534843 -7.125 -0.0625 C-6.22007812 -0.25972656 -5.31515625 -0.45695313 -4.3828125 -0.66015625 C-2 -1 -2 -1 0 0 Z " fill="#D7DAD8" transform="translate(339,157)"/>
<path d="M0 0 C1.2077558 3.62326739 0.54311128 4.64146369 -1 8 C-0.34 8 0.32 8 1 8 C1 13.61 1 19.22 1 25 C-0.32 25 -1.64 25 -3 25 C-3.0875127 21.77100574 -3.14056146 18.54231884 -3.1875 15.3125 C-3.21263672 14.40048828 -3.23777344 13.48847656 -3.26367188 12.54882812 C-3.31848438 7.52434845 -3.28571911 4.09636897 0 0 Z " fill="#289F3B" transform="translate(403,246)"/>
<path d="M0 0 C0.99 0 1.98 0 3 0 C3 6.6 3 13.2 3 20 C1.68 20.33 0.36 20.66 -1 21 C-1.02895976 17.87501937 -1.04678483 14.7500731 -1.0625 11.625 C-1.07087891 10.73554688 -1.07925781 9.84609375 -1.08789062 8.9296875 C-1.09111328 8.07890625 -1.09433594 7.228125 -1.09765625 6.3515625 C-1.10289307 5.56604004 -1.10812988 4.78051758 -1.11352539 3.97119141 C-1 2 -1 2 0 0 Z " fill="#28A535" transform="translate(353,132)"/>
<path d="M0 0 C2.64 0 5.28 0 8 0 C8 10.23 8 20.46 8 31 C6.02 31 4.04 31 2 31 C2 25.39 2 19.78 2 14 C2.33 14 2.66 14 3 14 C3 19.28 3 24.56 3 30 C4.32 30 5.64 30 7 30 C7 20.43 7 10.86 7 1 C5.02 1 3.04 1 1 1 C0.87625 1.804375 0.7525 2.60875 0.625 3.4375 C0.41875 4.283125 0.2125 5.12875 0 6 C-0.99 6.495 -0.99 6.495 -2 7 C-1.125 1.125 -1.125 1.125 0 0 Z " fill="#35A342" transform="translate(426,241)"/>
<path d="M0 0 C4.83236259 2.06511222 7.01192831 5.20803437 9 10 C9.73443705 15.02236245 9.85280627 18.7207906 7 23 C7 19.04 7 15.08 7 11 C3.58296941 13.2780204 3.20348811 14.38372165 1.8125 18.125 C1.29623047 19.49011719 1.29623047 19.49011719 0.76953125 20.8828125 C0.51558594 21.58148438 0.26164062 22.28015625 0 23 C-0.66 22.67 -1.32 22.34 -2 22 C-1.690625 21.46375 -1.38125 20.9275 -1.0625 20.375 C0.15464184 17.94938778 0.15464184 17.94938778 0.4375 14.875 C0.623125 13.92625 0.80875 12.9775 1 12 C1.99 11.34 2.98 10.68 4 10 C3.65555119 7.52733235 3.65555119 7.52733235 3 5 C2.34 4.67 1.68 4.34 1 4 C0.375 1.9375 0.375 1.9375 0 0 Z " fill="#5FAA6D" transform="translate(385,241)"/>
<path d="M0 0 C2.2477975 2.05233685 3.0022242 3.00667261 4 6 C3.66015625 8.26171875 3.66015625 8.26171875 3.0625 10.6875 C2.86785156 11.49574219 2.67320312 12.30398438 2.47265625 13.13671875 C2.31667969 13.75160156 2.16070312 14.36648438 2 15 C-0.475 14.01 -0.475 14.01 -3 13 C-3.08121924 11.39667209 -3.13929134 9.79215974 -3.1875 8.1875 C-3.22230469 7.29417969 -3.25710938 6.40085938 -3.29296875 5.48046875 C-2.95081002 2.58352485 -2.24606427 1.77444972 0 0 Z " fill="#2A9E39" transform="translate(366,245)"/>
<path d="M0 0 C1.9375 1.5 1.9375 1.5 3 3 C1.906875 2.773125 0.81375 2.54625 -0.3125 2.3125 C-3.97906081 2.24009036 -5.07672901 3.06305254 -7.98046875 5.44921875 C-10.77763512 8.18873944 -13.40892398 11.06598745 -16 14 C-16.99 13.34 -17.98 12.68 -19 12 C-17.16658814 9.97692485 -15.31220827 7.98419659 -13.4375 6 C-12.92380859 5.42765625 -12.41011719 4.8553125 -11.88085938 4.265625 C-8.07467691 0.29395634 -5.72305131 -0.83345407 0 0 Z " fill="#3F70A6" transform="translate(341,73)"/>
<path d="M0 0 C0.66 0 1.32 0 2 0 C2 0.66 2 1.32 2 2 C2.66 2 3.32 2 4 2 C4.33 4.64 4.66 7.28 5 10 C7.31 10 9.62 10 12 10 C12 10.99 12 11.98 12 13 C8.37 13 4.74 13 1 13 C0.67 8.71 0.34 4.42 0 0 Z " fill="#0C5986" transform="translate(366,154)"/>
<path d="M0 0 C6.27 0 12.54 0 19 0 C19 1.65 19 3.3 19 5 C15.04 5 11.08 5 7 5 C7 4.67 7 4.34 7 4 C10.3 3.67 13.6 3.34 17 3 C17 2.34 17 1.68 17 1 C11.72 1 6.44 1 1 1 C1 7.27 1 13.54 1 20 C0.67 20 0.34 20 0 20 C0 13.4 0 6.8 0 0 Z " fill="#32A044" transform="translate(442,241)"/>
<path d="M0 0 C0.66 0.165 1.32 0.33 2 0.5 C7.41936382 1.4032273 12.65148842 1.3371279 18 0 C18 1.32 18 2.64 18 4 C12.93067925 6.53466037 5.34549719 5.12536783 0 4 C0 2.68 0 1.36 0 0 Z " fill="#329F41" transform="translate(330,216)"/>
<path d="M0 0 C6.6 0 13.2 0 20 0 C20 0.99 20 1.98 20 3 C13.4 3 6.8 3 0 3 C0 2.01 0 1.02 0 0 Z " fill="#CFDFE8" transform="translate(363,215)"/>
<path d="M0 0 C1.32 0.33 2.64 0.66 4 1 C4.3690205 12.52164009 4.3690205 12.52164009 2 18 C1.34 18 0.68 18 0 18 C0 12.06 0 6.12 0 0 Z " fill="#2B9D38" transform="translate(352,192)"/>
<path d="M0 0 C3.375 -0.125 3.375 -0.125 7 0 C7.66 0.66 8.32 1.32 9 2 C8.625 4.625 8.625 4.625 8 7 C5.36 7 2.72 7 0 7 C0 4.69 0 2.38 0 0 Z " fill="#E3E4F0" transform="translate(280,259)"/>
<path d="M0 0 C1.98 0 3.96 0 6 0 C6.08696177 3.93736123 6.14037835 7.87447628 6.1875 11.8125 C6.21263672 12.93205078 6.23777344 14.05160156 6.26367188 15.20507812 C6.27333984 16.27822266 6.28300781 17.35136719 6.29296875 18.45703125 C6.31653442 19.9416687 6.31653442 19.9416687 6.34057617 21.45629883 C6 24 6 24 3 27 C3.33 18.42 3.66 9.84 4 1 C2.68 0.67 1.36 0.34 0 0 Z " fill="#59A569" transform="translate(342,183)"/>
<path d="M0 0 C2.31 0 4.62 0 7 0 C7 7.92 7 15.84 7 24 C6.67 24 6.34 24 6 24 C6 16.74 6 9.48 6 2 C4.68 2 3.36 2 2 2 C2 4.97 2 7.94 2 11 C1.01 11.495 1.01 11.495 0 12 C0 8.04 0 4.08 0 0 Z " fill="#4DA256" transform="translate(349,240)"/>
<path d="M0 0 C0.99 0.33 1.98 0.66 3 1 C4.52160014 4.6037898 5 7.05220686 5 11 C2.69 11 0.38 11 -2 11 C-1 3.57142857 -1 3.57142857 0 0 Z " fill="#C0CAE0" transform="translate(251,250)"/>
<path d="M0 0 C2.33294775 -0.04241723 4.66702567 -0.04092937 7 0 C8 1 8 1 8.125 3.5 C8 6 8 6 7 7 C4.66702567 7.04092937 2.33294775 7.04241723 0 7 C0 4.69 0 2.38 0 0 Z " fill="#BCC2DC" transform="translate(280,246)"/>
<path d="M0 0 C1.23556641 0.01740234 1.23556641 0.01740234 2.49609375 0.03515625 C3.32238281 0.04417969 4.14867187 0.05320313 5 0.0625 C5.63808594 0.07410156 6.27617187 0.08570313 6.93359375 0.09765625 C10.01051683 5.51304087 10.01051683 5.51304087 9.62109375 8.47265625 C9.39421875 9.00890625 9.16734375 9.54515625 8.93359375 10.09765625 C7.94359375 7.78765625 6.95359375 5.47765625 5.93359375 3.09765625 C3.05994584 2.68019017 3.05994584 2.68019017 -0.06640625 3.09765625 C-1.964989 5.4007079 -1.964989 5.4007079 -3.06640625 8.09765625 C-3.39640625 8.75765625 -3.72640625 9.41765625 -4.06640625 10.09765625 C-4.72640625 10.09765625 -5.38640625 10.09765625 -6.06640625 10.09765625 C-6.39640625 11.08765625 -6.72640625 12.07765625 -7.06640625 13.09765625 C-5.11856411 0.24189811 -5.11856411 0.24189811 0 0 Z " fill="#597DAA" transform="translate(250.06640625,239.90234375)"/>
<path d="M0 0 C2.31 0.33 4.62 0.66 7 1 C7 1.66 7 2.32 7 3 C9.97 3.495 9.97 3.495 13 4 C13 4.33 13 4.66 13 5 C10.69 5 8.38 5 6 5 C6 7.31 6 9.62 6 12 C5.01 12.495 5.01 12.495 4 13 C3.67 10.69 3.34 8.38 3 6 C2.01 7.32 1.02 8.64 0 10 C0 6.7 0 3.4 0 0 Z " fill="#467AA6" transform="translate(366,178)"/>
<path d="M0 0 C0.66 0.33 1.32 0.66 2 1 C0.8553125 2.0828125 0.8553125 2.0828125 -0.3125 3.1875 C-2.71751579 5.70437699 -4.32231726 7.98017107 -6 11 C-6.33 11.33 -6.66 11.66 -7 12 C-7.24733137 16.14276875 -7.24733137 16.14276875 -6 20 C-9.875 18.125 -9.875 18.125 -11 17 C-11.40625 14.3046875 -11.40625 14.3046875 -11 11 C-9.20515074 8.76809329 -7.59338551 7.01779083 -5.5 5.125 C-4.97535156 4.62742188 -4.45070313 4.12984375 -3.91015625 3.6171875 C-2.61995498 2.39736085 -1.31168268 1.19669751 0 0 Z " fill="#7492BB" transform="translate(264,138)"/>
<path d="M0 0 C0.66 0 1.32 0 2 0 C1.47731534 2.76276177 0.89130413 5.3260876 0 8 C-1.32 8 -2.64 8 -4 8 C-4 14.93 -4 21.86 -4 29 C-4.33 29 -4.66 29 -5 29 C-5 20.75 -5 12.5 -5 4 C-3.35 4 -1.7 4 0 4 C0 2.68 0 1.36 0 0 Z " fill="#48A34F" transform="translate(335,180)"/>
<path d="M0 0 C1.98 0.66 3.96 1.32 6 2 C6 4.31 6 6.62 6 9 C4.02 9 2.04 9 0 9 C0 6.03 0 3.06 0 0 Z " fill="#269F39" transform="translate(414,262)"/>
<path d="M0 0 C0 2.64 0 5.28 0 8 C-1.32 7.67 -2.64 7.34 -4 7 C-3.34 7 -2.68 7 -2 7 C-2 5.02 -2 3.04 -2 1 C-5.74667202 2.6327851 -5.74667202 2.6327851 -9 5 C-11.67058851 5.14115161 -14.32432238 5.04247107 -17 5 C-17 4.67 -17 4.34 -17 4 C-15.88625 3.896875 -14.7725 3.79375 -13.625 3.6875 C-12.42875 3.460625 -11.2325 3.23375 -10 3 C-9.34 2.01 -8.68 1.02 -8 0 C-5.0187907 -1.19248372 -3.02213602 -0.97140086 0 0 Z " fill="#56A772" transform="translate(348,154)"/>
<path d="M0 0 C0.33 0.66 0.66 1.32 1 2 C1.66 2 2.32 2 3 2 C2.39816251 4.02045442 1.72693904 6.02111039 1 8 C0.01 8.495 0.01 8.495 -1 9 C-1.99 10.485 -1.99 10.485 -3 12 C-3 11.01 -3 10.02 -3 9 C-4.32 8.67 -5.64 8.34 -7 8 C-5.71034824 6.62437146 -4.37310707 5.29233607 -3 4 C-2.34 4 -1.68 4 -1 4 C-0.67 2.68 -0.34 1.36 0 0 Z " fill="#C8D1D8" transform="translate(355,211)"/>
<path d="M0 0 C2.14548224 3.21822335 3.94876468 6.53901735 5.78125 9.94140625 C6.95821759 12.12370856 6.95821759 12.12370856 9 14 C8.34 14 7.68 14 7 14 C6.67 14.99 6.34 15.98 6 17 C6 15.68 6 14.36 6 13 C5.01 13 4.02 13 3 13 C1.35 9.7 -0.3 6.4 -2 3 C-1.34 3 -0.68 3 0 3 C0 2.01 0 1.02 0 0 Z " fill="#E6E7ED" transform="translate(319,206)"/>
<path d="M0 0 C0.66 1.32 1.32 2.64 2 4 C1.01 4 0.02 4 -1 4 C-1.66 5.65 -2.32 7.3 -3 9 C-2.34 9.66 -1.68 10.32 -1 11 C-2.65 11 -4.3 11 -6 11 C-6.04241723 8.66705225 -6.04092937 6.33297433 -6 4 C-5 3 -5 3 -2.4375 2.9375 C-1.2309375 2.9684375 -1.2309375 2.9684375 0 3 C0 2.01 0 1.02 0 0 Z " fill="#5BA965" transform="translate(335,168)"/>
<path d="M0 0 C0.66 0.33 1.32 0.66 2 1 C0.35 2.65 -1.3 4.3 -3 6 C-0.69 6.33 1.62 6.66 4 7 C4 7.99 4 8.98 4 10 C0.37 9.67 -3.26 9.34 -7 9 C-5.04783565 5.09567131 -3.12613393 2.96160056 0 0 Z " fill="#AFBBD8" transform="translate(284,137)"/>
<path d="M0 0 C3.63 0 7.26 0 11 0 C11 0.33 11 0.66 11 1 C7.7 1 4.4 1 1 1 C0.94613371 3.12472576 0.90726929 5.24983652 0.875 7.375 C0.85179687 8.55835938 0.82859375 9.74171875 0.8046875 10.9609375 C0.67133771 14.11153817 0.67133771 14.11153817 3 16 C2.34 16.99 1.68 17.98 1 19 C0.34 19 -0.32 19 -1 19 C-0.67 12.73 -0.34 6.46 0 0 Z " fill="#E7E9ED" transform="translate(357,194)"/>
<path d="M0 0 C0.66 0 1.32 0 2 0 C2 1.32 2 2.64 2 4 C-2.62 4 -7.24 4 -12 4 C-11.34 3.01 -10.68 2.02 -10 1 C-6.7 1.33 -3.4 1.66 0 2 C0 1.34 0 0.68 0 0 Z " fill="#46AC51" transform="translate(338,131)"/>
<path d="M0 0 C0.33 0 0.66 0 1 0 C1 5.61 1 11.22 1 17 C-0.32 17.33 -1.64 17.66 -3 18 C-3 13.71 -3 9.42 -3 5 C-2.67 5 -2.34 5 -2 5 C-2 7.97 -2 10.94 -2 14 C-1.34 14 -0.68 14 0 14 C0 9.38 0 4.76 0 0 Z " fill="#33A24A" transform="translate(355,135)"/>
<path d="M0 0 C1.0725 0.165 2.145 0.33 3.25 0.5 C8.82258642 1.21160726 14.39263574 1.08411046 20 1 C19 3 19 3 17.4375 3.625 C10.57618192 4.6805874 6.12497809 4.06248904 0 1 C0 0.67 0 0.34 0 0 Z " fill="#86B491" transform="translate(328,219)"/>
<path d="M0 0 C0 0.99 0 1.98 0 3 C-0.66 3.66 -1.32 4.32 -2 5 C0.31 5.33 2.62 5.66 5 6 C5 6.66 5 7.32 5 8 C1.37 8 -2.26 8 -6 8 C-6 5 -6 5 -4.6875 3.61328125 C-3.125 2.40885417 -1.5625 1.20442708 0 0 Z " fill="#BCC2DD" transform="translate(319,258)"/>
<path d="M0 0 C0.99 0 1.98 0 3 0 C3 2.97 3 5.94 3 9 C1.02 9 -0.96 9 -3 9 C-2.01 6.03 -1.02 3.06 0 0 Z " fill="#0E5789" transform="translate(367,183)"/>
<path d="M0 0 C0.66 0.33 1.32 0.66 2 1 C-2.38067283 6.10337266 -6.67576522 10.87371805 -12 15 C-12.66 14.67 -13.32 14.34 -14 14 C-9.38 9.38 -4.76 4.76 0 0 Z " fill="#B7C2DC" transform="translate(326,98)"/>
<path d="M0 0 C-0.66 1.65 -1.32 3.3 -2 5 C-2.66 5 -3.32 5 -4 5 C-4 4.01 -4 3.02 -4 2 C-4.99 2.495 -4.99 2.495 -6 3 C-9.86061033 4.28687011 -12.94150283 4.13757618 -17 4 C-17 3.67 -17 3.34 -17 3 C-16.39671875 2.86722656 -15.7934375 2.73445312 -15.171875 2.59765625 C-14.37265625 2.42105469 -13.5734375 2.24445313 -12.75 2.0625 C-11.96109375 1.88847656 -11.1721875 1.71445313 -10.359375 1.53515625 C-8.8829259 1.2002663 -7.41224391 0.83735757 -5.953125 0.43359375 C-4 0 -4 0 0 0 Z " fill="#50A761" transform="translate(352,214)"/>
<path d="M0 0 C0.99 0.33 1.98 0.66 3 1 C2.84660156 1.54140625 2.69320313 2.0828125 2.53515625 2.640625 C1.92128392 5.34704023 1.66791243 7.9850509 1.4375 10.75 C1.35371094 11.73484375 1.26992188 12.7196875 1.18359375 13.734375 C1.12300781 14.48203125 1.06242187 15.2296875 1 16 C-1.64 16 -4.28 16 -7 16 C-7 15.67 -7 15.34 -7 15 C-4.69 15 -2.38 15 0 15 C0 10.05 0 5.1 0 0 Z " fill="#B2C8B5" transform="translate(406,257)"/>
<path d="M0 0 C2.97 0 5.94 0 9 0 C9 0.66 9 1.32 9 2 C5.38026598 3.31626692 2.90432869 4 -1 4 C-0.67 2.68 -0.34 1.36 0 0 Z " fill="#269E2F" transform="translate(373,242)"/>
<path d="M0 0 C0.99773437 0.02320313 1.99546875 0.04640625 3.0234375 0.0703125 C4.52777344 0.09738281 4.52777344 0.09738281 6.0625 0.125 C6.83335937 0.14820313 7.60421875 0.17140625 8.3984375 0.1953125 C8.3984375 0.5253125 8.3984375 0.8553125 8.3984375 1.1953125 C7.52832031 1.32486328 7.52832031 1.32486328 6.640625 1.45703125 C0.81011806 2.5057528 -2.35810814 4.06066466 -6.6015625 8.1953125 C-4.20337971 0.31556905 -4.20337971 0.31556905 0 0 Z " fill="#4F77A9" transform="translate(308.6015625,237.8046875)"/>
<path d="M0 0 C1.32 0.33 2.64 0.66 4 1 C4 4.63 4 8.26 4 12 C3.67 12 3.34 12 3 12 C3 9.36 3 6.72 3 4 C2.34 4 1.68 4 1 4 C1 6.97 1 9.94 1 13 C0.67 13 0.34 13 0 13 C0 8.71 0 4.42 0 0 Z " fill="#349B50" transform="translate(352,192)"/>
<path d="M0 0 C0.33 0 0.66 0 1 0 C1 4.95 1 9.9 1 15 C0.67 15 0.34 15 0 15 C-0.33 12.36 -0.66 9.72 -1 7 C-1.99 7.495 -1.99 7.495 -3 8 C-2.25 2.25 -2.25 2.25 0 0 Z " fill="#C1D8C0" transform="translate(426,257)"/>
<path d="M0 0 C1.32 0 2.64 0 4 0 C4 1.65 4 3.3 4 5 C2.35 5.33 0.7 5.66 -1 6 C-1.042721 4.33388095 -1.04063832 2.66617115 -1 1 C-0.67 0.67 -0.34 0.34 0 0 Z " fill="#63AD6A" transform="translate(333,147)"/>
<path d="M0 0 C0.99 0 1.98 0 3 0 C3 2.64 3 5.28 3 8 C2.01 8.495 2.01 8.495 1 9 C0.34 8.34 -0.32 7.68 -1 7 C-0.625 3.375 -0.625 3.375 0 0 Z " fill="#2DA43E" transform="translate(358,124)"/>
<path d="M0 0 C1.98 0 3.96 0 6 0 C6 1.32 6 2.64 6 4 C4.02 4 2.04 4 0 4 C0 2.68 0 1.36 0 0 Z " fill="#FBFAFC" transform="translate(281,248)"/>
<path d="M0 0 C0.33 0 0.66 0 1 0 C1 1.65 1 3.3 1 5 C-2.96 5 -6.92 5 -11 5 C-11 4.67 -11 4.34 -11 4 C-7.7 3.67 -4.4 3.34 -1 3 C-0.67 2.01 -0.34 1.02 0 0 Z " fill="#4FA85C" transform="translate(460,241)"/>
<path d="M0 0 C0.66 0 1.32 0 2 0 C1.47731534 2.76276177 0.89130413 5.3260876 0 8 C-1.32 8 -2.64 8 -4 8 C-4 6.68 -4 5.36 -4 4 C-2.68 4 -1.36 4 0 4 C0 2.68 0 1.36 0 0 Z " fill="#3AA24B" transform="translate(335,180)"/>
<path d="M0 0 C2.2477975 2.05233685 3.0022242 3.00667261 4 6 C3.34 6.66 2.68 7.32 2 8 C2 7.01 2 6.02 2 5 C0.35 5 -1.3 5 -3 5 C-1.125 1.125 -1.125 1.125 0 0 Z " fill="#36A548" transform="translate(366,245)"/>
<path d="M0 0 C2.05078125 0.03255208 4.1015625 0.06510417 6.15234375 0.09765625 C6.15234375 0.42765625 6.15234375 0.75765625 6.15234375 1.09765625 C3.84234375 1.09765625 1.53234375 1.09765625 -0.84765625 1.09765625 C-0.97140625 1.90203125 -1.09515625 2.70640625 -1.22265625 3.53515625 C-1.42890625 4.38078125 -1.63515625 5.22640625 -1.84765625 6.09765625 C-2.83765625 6.59265625 -2.83765625 6.59265625 -3.84765625 7.09765625 C-2.81269978 0.14866278 -2.81269978 0.14866278 0 0 Z " fill="#3FA04C" transform="translate(427.84765625,240.90234375)"/>
<path d="M0 0 C-2 2 -2 2 -3.9453125 2.1953125 C-5.96354167 2.13020833 -7.98177083 2.06510417 -10 2 C-10.33 1.34 -10.66 0.68 -11 0 C-3.375 -1.125 -3.375 -1.125 0 0 Z " fill="#70AB76" transform="translate(344,212)"/>
<path d="M0 0 C1.32 0.33 2.64 0.66 4 1 C1.78631706 3.21368294 0.06983375 4.86552921 -3.11328125 5.265625 C-5.07746787 5.25166986 -7.0402625 5.13286356 -9 5 C-9 4.67 -9 4.34 -9 4 C-7.88625 3.896875 -6.7725 3.79375 -5.625 3.6875 C-4.42875 3.460625 -3.2325 3.23375 -2 3 C-1.34 2.01 -0.68 1.02 0 0 Z " fill="#67AD72" transform="translate(340,154)"/>
<path d="M0 0 C0.99 0.66 1.98 1.32 3 2 C2.34 3.32 1.68 4.64 1 6 C-2 6 -2 6 -4 5 C-2.68 3.35 -1.36 1.7 0 0 Z " fill="#C6D7C6" transform="translate(347,207)"/>
<path d="M0 0 C0.99 0.495 0.99 0.495 2 1 C2.6328125 3.06640625 2.6328125 3.06640625 3.125 5.5625 C3.29257812 6.38878906 3.46015625 7.21507812 3.6328125 8.06640625 C3.75398438 8.70449219 3.87515625 9.34257812 4 10 C2 8.375 2 8.375 0 6 C-0.25 2.75 -0.25 2.75 0 0 Z " fill="#6586B2" transform="translate(262,255)"/>
</svg>
